# Blender v2.79 (sub 0) OBJ File: 'theshamancave.blend'
# www.blender.org
mtllib goth_arc002.010.mtl
o goth_arc002.010
v -19.999992 -10.999992 -38.178543
v -19.999992 -9.999992 -38.178543
v -18.265764 -9.999992 -38.026817
v -18.265764 -10.999992 -38.026817
v -19.999992 -9.999992 -37.213497
v -18.433344 -9.999991 -37.076435
v -19.999992 -10.999992 -37.213497
v -18.433344 -10.999992 -37.076435
v -16.584230 -9.999991 -37.576252
v -16.584230 -10.999992 -37.576252
v -16.914295 -9.999991 -36.669407
v -16.914295 -10.999992 -36.669407
v -15.006483 -9.999991 -36.840538
v -15.006483 -10.999992 -36.840538
v -15.489005 -9.999992 -36.004784
v -15.489005 -10.999992 -36.004784
v -13.580459 -9.999991 -35.842026
v -13.580459 -10.999992 -35.842026
v -14.200779 -9.999991 -35.102757
v -14.200779 -10.999992 -35.102757
v -12.349489 -9.999991 -34.611057
v -12.349489 -10.999992 -34.611057
v -13.088757 -9.999991 -33.990738
v -13.088757 -10.999992 -33.990738
v -11.350976 -9.999991 -33.185036
v -11.350978 -10.999992 -33.185036
v -12.186730 -9.999991 -32.702515
v -12.186730 -10.999992 -32.702515
v -10.615261 -9.999991 -31.607290
v -10.615261 -10.999992 -31.607290
v -11.522105 -9.999991 -31.277224
v -11.522107 -10.999992 -31.277224
v -10.164694 -9.999992 -29.925755
v -10.164694 -10.999992 -29.925755
v -11.115077 -9.999992 -29.758175
v -11.115078 -10.999992 -29.758175
v -10.012967 -9.999992 -28.191525
v -10.012967 -10.999992 -28.191525
v -10.978012 -9.999992 -28.191525
v -10.978012 -10.999992 -28.191525
v -9.999987 -10.999995 -0.000001
v -9.999987 -9.999995 -0.000001
v -10.999987 -9.999995 -0.000001
v -10.999987 -10.999995 -0.000001
v -10.999990 -10.999995 -28.191530
v -9.999990 -10.999995 -28.191530
v -10.999989 -9.999994 -28.191530
v -9.999990 -9.999995 -28.191530
v -21.734221 -10.999992 -38.026817
v -21.734221 -9.999992 -38.026817
v -21.566643 -9.999992 -37.076435
v -21.566643 -10.999992 -37.076435
v -23.415756 -10.999992 -37.576252
v -23.415756 -9.999992 -37.576252
v -23.085690 -9.999991 -36.669407
v -23.085690 -10.999992 -36.669407
v -24.993504 -10.999992 -36.840534
v -24.993504 -9.999992 -36.840534
v -24.510981 -9.999991 -36.004784
v -24.510981 -10.999992 -36.004784
v -26.419525 -10.999992 -35.842022
v -26.419525 -9.999991 -35.842022
v -25.799208 -9.999992 -35.102757
v -25.799208 -10.999992 -35.102757
v -27.650496 -10.999992 -34.611057
v -27.650496 -9.999992 -34.611057
v -26.911228 -9.999992 -33.990738
v -26.911228 -10.999992 -33.990738
v -28.649008 -10.999992 -33.185032
v -28.649008 -9.999992 -33.185032
v -27.813253 -9.999992 -32.702511
v -27.813253 -10.999992 -32.702511
v -29.384724 -10.999992 -31.607286
v -29.384724 -9.999992 -31.607286
v -28.477879 -9.999992 -31.277222
v -28.477879 -10.999992 -31.277222
v -29.835293 -10.999992 -29.925751
v -29.835293 -9.999992 -29.925751
v -28.884907 -9.999992 -29.758173
v -28.884907 -10.999992 -29.758173
v -29.987019 -10.999992 -28.191525
v -29.987019 -9.999992 -28.191525
v -29.021973 -9.999992 -28.191523
v -29.021973 -10.999992 -28.191523
v -29.999994 -10.999995 0.000000
v -28.999994 -10.999995 0.000000
v -28.999994 -9.999995 0.000000
v -29.999994 -9.999995 0.000000
v -29.999994 -10.999995 -28.191528
v -28.999994 -10.999995 -28.191528
v -28.999994 -9.999994 -28.191528
v -29.999994 -9.999995 -28.191528
vt 0.250000 0.473684
vt 0.000000 0.526316
vt 0.000000 0.473684
vt 0.500000 0.473684
vt 0.750000 0.526316
vt 0.500000 0.526316
vt 0.250000 0.526316
vt 0.000000 0.578947
vt 0.500000 0.578947
vt 0.250000 0.578947
vt 0.000000 0.631579
vt 0.750000 0.578947
vt 0.500000 0.631579
vt 0.250000 0.631579
vt 0.000000 0.684211
vt 0.750000 0.684211
vt 0.500000 0.684211
vt 0.250000 0.684211
vt 0.000000 0.736842
vt 0.500000 0.736842
vt 0.250000 0.736842
vt 0.000000 0.789474
vt 0.750000 0.736842
vt 0.500000 0.789474
vt 0.250000 0.789474
vt 0.000000 0.842105
vt 0.750000 0.789474
vt 0.500000 0.842105
vt 0.250000 0.842105
vt 0.000000 0.894737
vt 0.750000 0.842105
vt 0.500000 0.894737
vt 0.250000 0.894737
vt 0.000000 0.947368
vt 0.750000 0.947368
vt 0.500000 0.947368
vt 1.000000 1.000000
vt 0.000000 0.000000
vt 1.000000 0.000000
vt 0.000000 0.526316
vt 0.500000 0.526316
vt 0.750000 0.473684
vt 0.000000 0.578947
vt 0.250000 0.526316
vt 0.750000 0.578947
vt 0.750000 0.526316
vt 0.000000 0.631579
vt 0.250000 0.578947
vt 0.500000 0.631579
vt 0.500000 0.578947
vt 0.000000 0.684211
vt 0.250000 0.631579
vt 0.500000 0.684211
vt 0.750000 0.631579
vt 0.250000 0.736842
vt 0.250000 0.684211
vt 0.500000 0.736842
vt 0.750000 0.684211
vt 0.000000 0.789474
vt 0.000000 0.736842
vt 0.500000 0.789474
vt 0.750000 0.736842
vt 0.000000 0.842105
vt 0.250000 0.789474
vt 0.500000 0.842105
vt 0.750000 0.789474
vt 0.000000 0.894737
vt 0.250000 0.842105
vt 0.500000 0.894737
vt 0.750000 0.842105
vt 0.000000 0.947368
vt 0.250000 0.894737
vt 0.500000 0.947368
vt 0.750000 0.894737
vt 0.000000 0.000000
vt 1.000000 1.000000
vt 1.000000 0.000000
vt 0.750000 0.631579
vt 0.750000 0.894737
vt 0.250000 0.947368
vt 0.000000 1.000000
vt 0.250000 0.947368
vt 0.750000 0.947368
vt 0.000000 1.000000
vt 1.000000 0.473684
vt 1.000000 0.526316
vt 1.000000 0.578947
vt 1.000000 0.684211
vt 1.000000 0.736842
vt 1.000000 0.842105
vt 1.000000 0.894737
vt 1.000000 0.000000
vt 0.000000 1.000000
vt 0.000000 0.000000
vt 1.000000 0.000000
vt 0.000000 1.000000
vt 0.000000 0.000000
vt 1.000000 0.526316
vt 1.000000 0.578947
vt 1.000000 0.631579
vt 1.000000 0.684211
vt 1.000000 0.736842
vt 1.000000 0.789474
vt 1.000000 0.842105
vt 1.000000 0.894737
vt 0.000000 1.000000
vt 1.000000 0.000000
vt 0.000000 0.000000
vt 0.000000 1.000000
vt 1.000000 0.000000
vt 0.000000 0.000000
vt 1.000000 0.631579
vt 1.000000 0.789474
vt 1.000000 0.947368
vt 1.000000 1.000000
vt 1.000000 1.000000
vt 1.000000 0.947368
vt 1.000000 1.000000
vt 1.000000 1.000000
vt 1.750000 0.052631
vt 1.000000 0.000000
vt 0.000000 1.000000
vt 0.000000 1.000000
vt 0.000000 0.000000
vt 1.750000 0.052631
vt 0.000000 1.000000
vt 1.000000 0.000000
vt 0.000000 1.000000
vt 0.000000 0.000000
vt 1.000000 1.000000
vt 1.000000 1.000000
vt 1.000000 1.000000
vt 1.000000 1.000000
vn -0.0000 0.6904 -0.7235
vn 0.1257 -0.6895 -0.7133
vn 0.0000 -0.6880 -0.7257
vn 0.0000 0.7258 0.6879
vn -0.1196 -0.7250 0.6783
vn -0.1191 0.7272 0.6760
vn 0.1257 0.6895 -0.7133
vn 0.2476 -0.6895 -0.6807
vn -0.2353 0.7259 0.6463
vn 0.2478 0.6895 -0.6806
vn 0.3622 -0.6895 -0.6273
vn -0.2353 -0.7258 0.6464
vn -0.3445 0.7250 0.5964
vn 0.3620 0.6895 -0.6274
vn 0.4656 -0.6895 -0.5548
vn -0.4427 -0.7250 0.5277
vn -0.4411 0.7273 0.5258
vn 0.4657 0.6895 -0.5547
vn 0.5549 -0.6895 -0.4655
vn -0.5269 0.7258 0.4422
vn 0.5548 0.6894 -0.4657
vn 0.6273 -0.6894 -0.3621
vn -0.5269 -0.7258 0.4422
vn -0.5957 0.7258 0.3441
vn 0.6272 0.6895 -0.3623
vn 0.6806 -0.6895 -0.2477
vn -0.5957 -0.7259 0.3440
vn -0.6463 0.7259 0.2353
vn 0.6807 0.6895 -0.2476
vn 0.7133 -0.6895 -0.1258
vn -0.6463 -0.7258 0.2354
vn -0.6783 0.7250 0.1196
vn 0.7133 0.6895 -0.1258
vn 0.6043 -0.5729 0.5538
vn -0.5494 -0.5821 0.5995
vn -0.5494 0.5821 0.5995
vn 0.5773 0.5774 0.5774
vn -0.5773 -0.5774 0.5774
vn 0.5774 -0.5773 0.5774
vn -0.1258 -0.6895 -0.7133
vn 0.1195 0.7250 0.6783
vn -0.0000 -0.7258 0.6879
vn -0.2478 -0.6895 -0.6806
vn -0.1257 0.6895 -0.7133
vn 0.2355 -0.7250 0.6472
vn 0.1191 -0.7272 0.6760
vn -0.3621 -0.6895 -0.6273
vn -0.2479 0.6895 -0.6806
vn 0.3440 0.7258 0.5957
vn 0.2348 0.7272 0.6450
vn -0.4650 -0.6904 -0.5542
vn -0.3621 0.6895 -0.6273
vn 0.4421 0.7259 0.5269
vn 0.3438 -0.7258 0.5958
vn -0.5543 0.6904 -0.4649
vn -0.4663 0.6880 -0.5560
vn 0.5269 0.7258 0.4422
vn 0.4422 -0.7258 0.5269
vn -0.6273 -0.6895 -0.3622
vn -0.5560 -0.6880 -0.4664
vn 0.5957 0.7258 0.3439
vn 0.5269 -0.7259 0.4421
vn -0.6807 -0.6895 -0.2476
vn -0.6272 0.6895 -0.3623
vn 0.6464 0.7259 0.2352
vn 0.5957 -0.7258 0.3439
vn -0.7133 -0.6895 -0.1258
vn -0.6806 0.6895 -0.2478
vn 0.6774 0.7259 0.1194
vn 0.6464 -0.7258 0.2352
vn -0.6043 -0.5729 0.5537
vn -0.7133 0.6895 -0.1259
vn 0.5494 0.5821 0.5995
vn 0.6774 -0.7259 0.1194
vn -0.5774 0.5773 0.5774
vn -0.3431 -0.7273 0.5945
vn -0.6760 -0.7272 0.1191
vn 0.6043 0.5729 0.5537
vn -0.6043 0.5729 0.5537
vn 0.5494 -0.5821 0.5995
vn -0.0000 0.6880 -0.7257
vn -0.1192 0.7272 0.6760
vn 0.1260 0.6880 -0.7147
vn -0.1191 -0.7273 0.6759
vn 0.0000 -0.7273 0.6864
vn -0.2348 0.7273 0.6449
vn 0.2482 0.6880 -0.6819
vn 0.1260 -0.6880 -0.7147
vn -0.2347 -0.7272 0.6450
vn -0.3432 0.7273 0.5944
vn 0.3629 0.6880 -0.6285
vn 0.2482 -0.6880 -0.6819
vn -0.3432 -0.7273 0.5944
vn 0.4665 0.6880 -0.5560
vn 0.4665 -0.6880 -0.5560
vn -0.4412 -0.7273 0.5258
vn -0.5258 0.7273 0.4412
vn 0.5560 0.6880 -0.4665
vn -0.5258 -0.7273 0.4412
vn -0.5944 0.7272 0.3432
vn 0.6285 0.6880 -0.3628
vn 0.5559 -0.6880 -0.4665
vn -0.5944 -0.7273 0.3432
vn 0.6819 0.6881 -0.2482
vn 0.6819 -0.6880 -0.2482
vn -0.6450 -0.7273 0.2348
vn -0.6449 0.7273 0.2347
vn 0.7147 0.6880 -0.1261
vn 0.7147 -0.6880 -0.1261
vn -0.6760 -0.7272 0.1192
vn -0.6759 0.7273 0.1192
vn -0.5774 -0.5774 0.5773
vn 0.7071 -0.7071 0.0000
vn 0.5773 -0.5774 0.5774
vn -0.7071 0.7071 0.0000
vn -0.5774 0.5774 0.5773
vn 0.1191 0.7273 0.6759
vn 0.0000 0.7273 0.6864
vn 0.1192 -0.7272 0.6760
vn -0.1260 0.6880 -0.7147
vn 0.2347 0.7272 0.6450
vn 0.2348 -0.7273 0.6449
vn -0.1260 -0.6880 -0.7147
vn -0.2482 0.6880 -0.6819
vn 0.3432 0.7273 0.5944
vn 0.3432 -0.7273 0.5944
vn -0.2482 -0.6880 -0.6819
vn -0.3628 0.6880 -0.6285
vn 0.4411 0.7273 0.5258
vn 0.4412 -0.7272 0.5258
vn -0.3628 -0.6880 -0.6285
vn -0.4665 0.6880 -0.5560
vn 0.5258 0.7272 0.4412
vn 0.5258 -0.7273 0.4411
vn -0.4665 -0.6880 -0.5559
vn -0.5559 0.6880 -0.4665
vn 0.5944 0.7273 0.3432
vn 0.5944 -0.7273 0.3432
vn -0.5560 -0.6880 -0.4665
vn -0.6285 0.6880 -0.3629
vn 0.6449 0.7273 0.2348
vn 0.6450 -0.7272 0.2347
vn -0.6285 -0.6880 -0.3628
vn -0.6820 0.6880 -0.2482
vn 0.6759 0.7273 0.1191
vn 0.6759 -0.7273 0.1191
vn -0.6820 -0.6880 -0.2482
vn -0.7147 0.6880 -0.1260
vn -0.7147 -0.6880 -0.1261
vn -0.7071 -0.7071 0.0002
vn 0.7071 0.7071 -0.0003
vn -0.5773 0.5774 0.5774
vn 0.5774 0.5774 0.5773
vn 0.3628 -0.6880 -0.6285
vn -0.4412 0.7273 0.5258
vn 0.6285 -0.6880 -0.3629
vn -0.5493 0.5821 0.5995
vn -0.5493 -0.5821 0.5995
vn -0.7071 -0.7071 0.0000
vn 0.5774 -0.5774 0.5773
vn 0.7071 0.7071 0.0000
vn 0.5774 0.5773 0.5774
vn 0.5493 0.5821 0.5995
vn 0.5493 -0.5821 0.5995
vn 0.7071 -0.7071 -0.0003
vn -0.7071 0.7071 0.0002
vn -0.5774 -0.5773 0.5774
vn 0.6043 0.5729 0.5538
vn -0.7071 0.7071 -0.0003
vn 0.7071 -0.7071 0.0002
vn -0.6043 0.5729 0.5538
usemtl wire_028089177.006
s 1
f 2/1/1 4/2/2 1/3/3
f 5/4/4 8/5/5 6/6/6
f 3/7/7 10/8/8 4/2/2
f 8/5/5 11/9/9 6/6/6
f 9/10/10 14/11/11 10/8/8
f 12/12/12 15/13/13 11/9/9
f 13/14/14 18/15/15 14/11/11
f 15/13/13 20/16/16 19/17/17
f 17/18/18 22/19/19 18/15/15
f 20/16/16 23/20/20 19/17/17
f 21/21/21 26/22/22 22/19/19
f 24/23/23 27/24/24 23/20/20
f 25/25/25 30/26/26 26/22/22
f 28/27/27 31/28/28 27/24/24
f 29/29/29 34/30/30 30/26/26
f 32/31/31 35/32/32 31/28/28
f 33/33/33 38/34/34 34/30/30
f 35/32/32 40/35/35 39/36/36
f 42/37/37 44/38/38 41/39/39
f 49/40/40 2/1/1 1/3/3
f 51/41/41 7/42/42 5/4/4
f 53/43/43 50/44/44 49/40/40
f 51/41/41 56/45/45 52/46/46
f 57/47/47 54/48/48 53/43/43
f 59/49/49 56/45/45 55/50/50
f 61/51/51 58/52/52 57/47/47
f 63/53/53 60/54/54 59/49/49
f 61/51/51 66/55/55 62/56/56
f 67/57/57 64/58/58 63/53/53
f 69/59/59 66/55/55 65/60/60
f 71/61/61 68/62/62 67/57/57
f 73/63/63 70/64/64 69/59/59
f 75/65/65 72/66/66 71/61/61
f 77/67/67 74/68/68 73/63/63
f 79/69/69 76/70/70 75/65/65
f 81/71/71 78/72/72 77/67/67
f 83/73/73 80/74/74 79/69/69
f 86/75/39 88/76/75 85/77/38
f 2/1/1 3/7/7 4/2/2
f 5/4/4 7/42/42 8/5/5
f 3/7/7 9/10/10 10/8/8
f 8/5/5 12/12/12 11/9/9
f 9/10/10 13/14/14 14/11/11
f 12/12/12 16/78/76 15/13/13
f 13/14/14 17/18/18 18/15/15
f 15/13/13 16/78/76 20/16/16
f 17/18/18 21/21/21 22/19/19
f 20/16/16 24/23/23 23/20/20
f 21/21/21 25/25/25 26/22/22
f 24/23/23 28/27/27 27/24/24
f 25/25/25 29/29/29 30/26/26
f 28/27/27 32/31/31 31/28/28
f 29/29/29 33/33/33 34/30/30
f 32/31/31 36/79/77 35/32/32
f 33/33/33 37/80/78 38/34/34
f 35/32/32 36/79/77 40/35/35
f 42/37/37 43/81/75 44/38/38
f 49/40/40 50/44/44 2/1/1
f 51/41/41 52/46/46 7/42/42
f 53/43/43 54/48/48 50/44/44
f 51/41/41 55/50/50 56/45/45
f 57/47/47 58/52/52 54/48/48
f 59/49/49 60/54/54 56/45/45
f 61/51/51 62/56/56 58/52/52
f 63/53/53 64/58/58 60/54/54
f 61/51/51 65/60/60 66/55/55
f 67/57/57 68/62/62 64/58/58
f 69/59/59 70/64/64 66/55/55
f 71/61/61 72/66/66 68/62/62
f 73/63/63 74/68/68 70/64/64
f 75/65/65 76/70/70 72/66/66
f 77/67/67 78/72/72 74/68/68
f 79/69/69 80/74/74 76/70/70
f 81/71/71 82/82/79 78/72/72
f 83/73/73 84/83/80 80/74/74
f 86/75/39 87/84/37 88/76/75
s 2
f 2/1/81 6/6/82 3/7/83
f 1/85/3 8/5/84 7/42/85
f 3/7/83 11/9/86 9/10/87
f 4/86/88 12/12/89 8/5/84
f 9/10/87 15/13/90 13/14/91
f 10/87/92 16/78/93 12/12/89
f 15/13/90 17/18/94 13/14/91
f 16/78/93 18/88/95 20/16/96
f 17/18/94 23/20/97 21/21/98
f 18/88/95 24/23/99 20/16/96
f 21/21/98 27/24/100 25/25/101
f 22/89/102 28/27/103 24/23/99
f 27/24/100 29/29/104 25/25/101
f 28/27/103 30/90/105 32/31/106
f 31/28/107 33/33/108 29/29/104
f 32/31/106 34/91/109 36/79/110
f 35/32/111 37/80/78 33/33/108
f 34/91/109 40/35/35 36/79/110
f 44/92/112 46/93/113 41/94/114
f 42/95/37 47/96/115 43/97/116
f 2/1/81 51/41/117 5/4/118
f 52/46/119 1/85/3 7/42/85
f 50/44/120 55/50/121 51/41/117
f 56/45/122 49/98/123 52/46/119
f 54/48/124 59/49/125 55/50/121
f 60/54/126 53/99/127 56/45/122
f 58/52/128 63/53/129 59/49/125
f 64/58/130 57/100/131 60/54/126
f 62/56/132 67/57/133 63/53/129
f 68/62/134 61/101/135 64/58/130
f 66/55/136 71/61/137 67/57/133
f 72/66/138 65/102/139 68/62/134
f 70/64/140 75/65/141 71/61/137
f 76/70/142 69/103/143 72/66/138
f 74/68/144 79/69/145 75/65/141
f 80/74/146 73/104/147 76/70/142
f 78/72/148 83/73/73 79/69/145
f 84/83/80 77/105/149 80/74/146
f 89/106/150 86/107/114 85/108/112
f 91/109/151 88/110/152 87/111/153
f 2/1/81 5/4/118 6/6/82
f 1/85/3 4/86/88 8/5/84
f 3/7/83 6/6/82 11/9/86
f 4/86/88 10/87/92 12/12/89
f 9/10/87 11/9/86 15/13/90
f 10/87/92 14/112/154 16/78/93
f 15/13/90 19/17/155 17/18/94
f 16/78/93 14/112/154 18/88/95
f 17/18/94 19/17/155 23/20/97
f 18/88/95 22/89/102 24/23/99
f 21/21/98 23/20/97 27/24/100
f 22/89/102 26/113/156 28/27/103
f 27/24/100 31/28/107 29/29/104
f 28/27/103 26/113/156 30/90/105
f 31/28/107 35/32/111 33/33/108
f 32/31/106 30/90/105 34/91/109
f 35/32/111 39/36/157 37/80/78
f 34/91/109 38/114/34 40/35/35
f 44/92/112 45/115/150 46/93/113
f 42/95/37 48/116/151 47/96/115
f 2/1/81 50/44/120 51/41/117
f 52/46/119 49/98/123 1/85/3
f 50/44/120 54/48/124 55/50/121
f 56/45/122 53/99/127 49/98/123
f 54/48/124 58/52/128 59/49/125
f 60/54/126 57/100/131 53/99/127
f 58/52/128 62/56/132 63/53/129
f 64/58/130 61/101/135 57/100/131
f 62/56/132 66/55/136 67/57/133
f 68/62/134 65/102/139 61/101/135
f 66/55/136 70/64/140 71/61/137
f 72/66/138 69/103/143 65/102/139
f 70/64/140 74/68/144 75/65/141
f 76/70/142 73/104/147 69/103/143
f 74/68/144 78/72/148 79/69/145
f 80/74/146 77/105/149 73/104/147
f 78/72/148 82/82/79 83/73/73
f 84/83/80 81/117/71 77/105/149
f 89/106/150 90/118/113 86/107/114
f 91/109/151 92/119/115 88/110/152
s 4
f 38/34/34 39/36/157 40/120/158
f 43/121/75 45/122/159 44/38/112
f 41/39/160 48/123/161 42/124/162
f 83/73/163 81/71/71 84/125/164
f 90/126/165 87/127/162 86/75/160
f 92/128/166 85/77/167 88/129/116
f 38/34/34 37/80/168 39/36/157
f 43/121/75 47/130/169 45/122/159
f 41/39/160 46/131/170 48/123/161
f 83/73/163 82/82/171 81/71/71
f 90/126/165 91/132/161 87/127/162
f 92/128/166 89/133/159 85/77/167
