# Blender v2.79 (sub 0) OBJ File: 'theshamancave.blend'
# www.blender.org
mtllib kit_40x40m_terrain_003.013.mtl
o kit_40x40m_terrain_003.013
v 38.190552 -24.999983 -28.284269
v 38.190552 -29.999983 -28.284269
v 31.213196 -29.999985 -24.795589
v 31.213192 -24.999985 -24.795589
v 31.119484 -24.999985 -24.643965
v 31.119484 -29.999985 -24.643965
v 31.119484 -29.999985 -21.213203
v 31.119482 -24.999985 -21.213203
v 24.142128 -29.999985 -17.724524
v 24.142126 -24.999985 -17.724524
v 24.048418 -24.999985 -17.572897
v 24.048418 -29.999985 -17.572897
v 24.048414 -29.999985 -14.142136
v 24.048414 -24.999985 -14.142135
v 38.190548 -19.999983 -28.284269
v 31.213192 -19.999985 -24.795589
v 31.119484 -19.999985 -24.643965
v 31.119482 -19.999985 -21.213203
v 24.142126 -19.999985 -17.724524
v 24.048414 -19.999985 -17.572897
v 24.048412 -19.999985 -14.142135
v 38.190548 -14.999984 -28.284269
v 31.213192 -14.999985 -24.795589
v 31.119482 -14.999985 -24.643965
v 31.119482 -14.999985 -21.213203
v 24.142124 -14.999985 -17.724524
v 24.048414 -14.999985 -17.572897
v 24.048412 -14.999985 -14.142135
v 38.190548 -9.999983 -28.284269
v 31.213192 -9.999985 -24.795589
v 31.119482 -9.999985 -24.643965
v 31.119480 -9.999985 -21.213203
v 24.142124 -9.999985 -17.724524
v 24.048414 -9.999985 -17.572897
v 24.048412 -9.999985 -14.142135
v 38.190552 -44.999985 -28.284269
v 38.190552 -49.999985 -28.284269
v 31.213198 -49.999985 -24.795589
v 31.213198 -44.999985 -24.795589
v 31.119486 -44.999985 -24.643965
v 31.119486 -49.999985 -24.643965
v 31.119486 -49.999985 -21.213203
v 31.119486 -44.999985 -21.213203
v 24.142128 -49.999985 -17.724524
v 24.142128 -44.999985 -17.724524
v 24.048420 -44.999985 -17.572897
v 24.048420 -49.999985 -17.572897
v 24.048418 -49.999985 -14.142135
v 24.048418 -44.999985 -14.142135
v 38.190552 -39.999981 -28.284269
v 31.213196 -39.999985 -24.795589
v 31.119486 -39.999985 -24.643965
v 31.119484 -39.999985 -21.213203
v 24.142128 -39.999985 -17.724524
v 24.048418 -39.999985 -17.572897
v 24.048418 -39.999985 -14.142135
v 38.190552 -34.999981 -28.284269
v 31.213196 -34.999985 -24.795589
v 31.119486 -34.999985 -24.643965
v 31.119484 -34.999985 -21.213203
v 24.142128 -34.999985 -17.724524
v 24.048418 -34.999985 -17.572897
v 24.048418 -34.999985 -14.142135
v 17.071062 -49.999989 -10.653455
v 17.071060 -44.999989 -10.653455
v 16.977350 -44.999989 -10.501828
v 16.977350 -49.999989 -10.501828
v 16.977350 -49.999989 -7.071067
v 16.977350 -44.999989 -7.071067
v 9.999995 -49.999989 -3.582388
v 9.999992 -44.999989 -3.582388
v 9.906284 -44.999989 -3.430762
v 9.906284 -49.999989 -3.430762
v 9.906284 -49.999989 0.000000
v 9.906284 -44.999989 0.000000
v 17.071058 -39.999989 -10.653455
v 16.977348 -39.999989 -10.501828
v 16.977348 -39.999989 -7.071067
v 9.999992 -39.999989 -3.582388
v 9.906281 -39.999989 -3.430762
v 9.906281 -39.999989 0.000000
v 17.071058 -34.999989 -10.653455
v 16.977348 -34.999989 -10.501828
v 16.977348 -34.999989 -7.071067
v 9.999992 -34.999989 -3.582388
v 9.906281 -34.999989 -3.430762
v 9.906281 -34.999989 0.000000
v 17.071058 -29.999985 -10.653455
v 16.977346 -29.999985 -10.501828
v 16.977346 -29.999985 -7.071067
v 9.999990 -29.999987 -3.582388
v 9.906281 -29.999987 -3.430762
v 9.906281 -29.999987 0.000000
v 17.071058 -24.999987 -10.653455
v 16.977346 -24.999987 -10.501828
v 16.977346 -24.999987 -7.071067
v 9.999990 -24.999987 -3.582388
v 9.906281 -24.999987 -3.430762
v 9.906279 -24.999987 0.000000
v 17.071056 -19.999987 -10.653455
v 16.977346 -19.999987 -10.501828
v 16.977346 -19.999987 -7.071067
v 9.999990 -19.999987 -3.582388
v 9.906279 -19.999987 -3.430762
v 9.906279 -19.999987 0.000000
v 17.071056 -14.999987 -10.653455
v 16.977345 -14.999987 -10.501828
v 16.977345 -14.999987 -7.071067
v 9.999988 -14.999988 -3.582388
v 9.906279 -14.999988 -3.430762
v 9.906279 -14.999988 0.000000
v 17.071056 -9.999987 -10.653455
v 16.977345 -9.999987 -10.501828
v 16.977345 -9.999987 -7.071067
v 9.999988 -9.999988 -3.582388
v 9.906279 -9.999988 -3.430762
v 9.906277 -9.999988 0.000000
vt 0.000000 0.250000
vt 0.246687 0.000000
vt 0.246687 0.250000
vt 0.257408 0.000000
vt 0.500000 0.250000
vt 0.257408 0.250000
vt 0.757408 0.000000
vt 1.000000 0.250000
vt 0.757408 0.250000
vt 0.000000 0.500000
vt 0.246687 0.500000
vt 0.500000 0.500000
vt 0.257408 0.500000
vt 1.000000 0.500000
vt 0.757408 0.500000
vt 0.246687 0.750000
vt 0.000000 0.750000
vt 0.500000 0.750000
vt 0.257408 0.750000
vt 1.000000 0.750000
vt 0.757408 0.750000
vt 0.246687 1.000000
vt 0.000000 1.000000
vt 0.500000 1.000000
vt 0.257408 1.000000
vt 1.000000 1.000000
vt 0.757408 1.000000
vt 0.000000 0.000000
vt 0.246687 0.250000
vt 0.000000 0.250000
vt 0.257408 0.000000
vt 0.500000 0.250000
vt 0.257408 0.250000
vt 0.757408 0.000000
vt 1.000000 0.250000
vt 0.757408 0.250000
vt 0.246687 0.500000
vt 0.000000 0.500000
vt 0.500000 0.500000
vt 0.257408 0.500000
vt 1.000000 0.500000
vt 0.757408 0.500000
vt 0.246687 0.750000
vt 0.000000 0.750000
vt 0.500000 0.750000
vt 0.257408 0.750000
vt 1.000000 0.750000
vt 0.757408 0.750000
vt 0.246687 1.000000
vt 0.000000 1.000000
vt 0.500000 1.000000
vt 0.257408 1.000000
vt 1.000000 1.000000
vt 0.757408 1.000000
vt 0.257408 0.000000
vt 0.500000 0.250000
vt 0.257408 0.250000
vt 0.757408 0.000000
vt 1.000000 0.250000
vt 0.757408 0.250000
vt 0.500000 0.500000
vt 0.257408 0.500000
vt 1.000000 0.500000
vt 0.757408 0.500000
vt 0.500000 0.750000
vt 0.257408 0.750000
vt 1.000000 0.750000
vt 0.757408 0.750000
vt 0.500000 1.000000
vt 0.257408 1.000000
vt 1.000000 1.000000
vt 0.757408 1.000000
vt 0.257408 0.000000
vt 0.500000 0.250000
vt 0.257408 0.250000
vt 0.757408 0.000000
vt 1.000000 0.250000
vt 0.757408 0.250000
vt 0.500000 0.500000
vt 0.257408 0.500000
vt 1.000000 0.500000
vt 0.757408 0.500000
vt 0.500000 0.750000
vt 0.257408 0.750000
vt 1.000000 0.750000
vt 0.757408 0.750000
vt 0.500000 1.000000
vt 0.257408 1.000000
vt 1.000000 1.000000
vt 0.757408 1.000000
vt 0.000000 0.000000
vt 0.500000 0.000000
vt 1.000000 0.000000
vt 0.246687 0.000000
vt 0.500000 0.000000
vt 1.000000 0.000000
vt 0.500000 0.000000
vt 1.000000 0.000000
vt 0.500000 0.000000
vt 1.000000 0.000000
vt 0.746687 0.000000
vt 0.746687 0.250000
vt 0.746687 0.500000
vt 0.746687 0.750000
vt 0.746687 1.000000
vt 0.746687 0.250000
vt 0.746687 0.500000
vt 0.746687 0.750000
vt 0.746687 1.000000
vt 0.000000 0.000000
vt 0.246687 0.250000
vt 0.000000 0.250000
vt 0.746687 0.000000
vt 0.746687 0.250000
vt 0.246687 0.500000
vt 0.000000 0.500000
vt 0.746687 0.500000
vt 0.246687 0.750000
vt 0.000000 0.750000
vt 0.746687 0.750000
vt 0.246687 1.000000
vt 0.000000 1.000000
vt 0.746687 1.000000
vt 0.000000 0.250000
vt 0.246687 0.000000
vt 0.246687 0.250000
vt 0.746687 0.250000
vt 0.000000 0.500000
vt 0.246687 0.500000
vt 0.746687 0.500000
vt 0.246687 0.750000
vt 0.000000 0.750000
vt 0.746687 0.750000
vt 0.246687 1.000000
vt 0.000000 1.000000
vt 0.746687 1.000000
vt 0.746687 0.000000
vt 0.246687 0.000000
vt 0.000000 0.000000
vt 0.746687 0.000000
vn -0.4472 -0.0000 -0.8944
vn -0.6746 0.0000 -0.7382
vn -0.6747 0.0000 -0.7381
vn -0.9619 0.0000 -0.2733
vn -0.8506 0.0000 -0.5257
vn -1.0000 -0.0000 0.0000
vn -0.8507 0.0000 -0.5257
vn -0.6746 0.0000 -0.7381
vn -0.9619 0.0000 -0.2732
vn -0.9619 -0.0001 -0.2733
usemtl wire_028089177.009
s 1
f 1/1/1 3/2/2 4/3/3
f 6/4/4 8/5/5 5/6/4
f 12/7/4 14/8/5 11/9/4
f 15/10/1 4/3/3 16/11/2
f 5/6/4 18/12/5 17/13/4
f 11/9/4 21/14/5 20/15/4
f 15/10/1 23/16/2 22/17/1
f 17/13/4 25/18/5 24/19/4
f 20/15/4 28/20/5 27/21/4
f 22/17/1 30/22/2 29/23/1
f 24/19/4 32/24/5 31/25/4
f 27/21/4 35/26/5 34/27/4
f 37/28/1 39/29/2 36/30/1
f 41/31/4 43/32/5 40/33/4
f 47/34/4 49/35/5 46/36/4
f 36/30/1 51/37/2 50/38/1
f 40/33/4 53/39/5 52/40/4
f 46/36/4 56/41/5 55/42/4
f 50/38/1 58/43/2 57/44/1
f 52/40/4 60/45/5 59/46/4
f 55/42/4 63/47/5 62/48/4
f 57/44/1 3/49/2 2/50/1
f 59/46/4 7/51/5 6/52/4
f 62/48/4 13/53/5 12/54/4
f 67/55/4 69/56/5 66/57/4
f 73/58/4 75/59/6 72/60/4
f 66/57/4 78/61/5 77/62/4
f 72/60/4 81/63/6 80/64/4
f 77/62/4 84/65/5 83/66/4
f 80/64/4 87/67/6 86/68/4
f 83/66/4 90/69/5 89/70/4
f 86/68/4 93/71/6 92/72/4
f 89/73/4 96/74/5 95/75/4
f 92/76/4 99/77/6 98/78/4
f 95/75/4 102/79/5 101/80/4
f 98/78/4 105/81/6 104/82/4
f 101/80/4 108/83/5 107/84/4
f 104/82/4 111/85/6 110/86/4
f 107/84/4 114/87/5 113/88/4
f 110/86/4 117/89/6 116/90/4
f 1/1/1 2/91/1 3/2/2
f 6/4/4 7/92/5 8/5/5
f 12/7/4 13/93/5 14/8/5
f 15/10/1 1/1/1 4/3/3
f 5/6/4 8/5/5 18/12/5
f 11/9/4 14/8/5 21/14/5
f 15/10/1 16/11/2 23/16/2
f 17/13/4 18/12/5 25/18/5
f 20/15/4 21/14/5 28/20/5
f 22/17/1 23/16/2 30/22/2
f 24/19/4 25/18/5 32/24/5
f 27/21/4 28/20/5 35/26/5
f 37/28/1 38/94/2 39/29/2
f 41/31/4 42/95/5 43/32/5
f 47/34/4 48/96/5 49/35/5
f 36/30/1 39/29/2 51/37/2
f 40/33/4 43/32/5 53/39/5
f 46/36/4 49/35/5 56/41/5
f 50/38/1 51/37/2 58/43/2
f 52/40/4 53/39/5 60/45/5
f 55/42/4 56/41/5 63/47/5
f 57/44/1 58/43/2 3/49/2
f 59/46/4 60/45/5 7/51/5
f 62/48/4 63/47/5 13/53/5
f 67/55/4 68/97/5 69/56/5
f 73/58/4 74/98/6 75/59/6
f 66/57/4 69/56/5 78/61/5
f 72/60/4 75/59/6 81/63/6
f 77/62/4 78/61/5 84/65/5
f 80/64/4 81/63/6 87/67/6
f 83/66/4 84/65/5 90/69/5
f 86/68/4 87/67/6 93/71/6
f 89/73/4 90/99/5 96/74/5
f 92/76/4 93/100/6 99/77/6
f 95/75/4 96/74/5 102/79/5
f 98/78/4 99/77/6 105/81/6
f 101/80/4 102/79/5 108/83/5
f 104/82/4 105/81/6 111/85/6
f 107/84/4 108/83/5 114/87/5
f 110/86/4 111/85/6 117/89/6
s 2
f 8/5/7 9/101/2 10/102/2
f 8/5/7 19/103/2 18/12/7
f 25/18/7 19/103/2 26/104/2
f 32/24/7 26/104/2 33/105/2
f 42/95/7 45/106/2 43/32/7
f 53/39/7 45/106/2 54/107/2
f 53/39/7 61/108/2 60/45/7
f 60/45/7 9/109/2 7/51/7
f 48/110/7 65/111/2 49/112/7
f 69/56/7 70/113/2 71/114/2
f 49/112/7 76/115/2 56/116/7
f 78/61/7 71/114/2 79/117/2
f 56/116/7 82/118/2 63/119/7
f 78/61/7 85/120/2 84/65/7
f 63/119/7 88/121/2 13/122/7
f 90/69/7 85/120/2 91/123/2
f 14/124/7 88/125/2 94/126/2
f 90/99/7 97/127/2 96/74/7
f 21/128/7 94/126/2 100/129/2
f 96/74/7 103/130/2 102/79/7
f 21/128/7 106/131/2 28/132/7
f 108/83/7 103/130/2 109/133/2
f 28/132/7 112/134/2 35/135/7
f 108/83/7 115/136/2 114/87/7
f 6/4/4 4/3/8 3/2/2
f 5/6/4 16/11/2 4/3/8
f 17/13/4 23/16/2 16/11/2
f 24/19/4 30/22/2 23/16/2
f 41/31/4 39/29/2 38/94/8
f 40/33/4 51/37/2 39/29/2
f 52/40/4 58/43/2 51/37/2
f 59/46/4 3/49/2 58/43/2
f 8/5/7 7/92/7 9/101/2
f 8/5/7 10/102/2 19/103/2
f 25/18/7 18/12/7 19/103/2
f 32/24/7 25/18/7 26/104/2
f 42/95/7 44/137/2 45/106/2
f 53/39/7 43/32/7 45/106/2
f 53/39/7 54/107/2 61/108/2
f 60/45/7 61/108/2 9/109/2
f 48/110/7 64/138/2 65/111/2
f 69/56/7 68/97/7 70/113/2
f 49/112/7 65/111/2 76/115/2
f 78/61/7 69/56/7 71/114/2
f 56/116/7 76/115/2 82/118/2
f 78/61/7 79/117/2 85/120/2
f 63/119/7 82/118/2 88/121/2
f 90/69/7 84/65/7 85/120/2
f 14/124/7 13/139/7 88/125/2
f 90/99/7 91/140/2 97/127/2
f 21/128/7 14/124/7 94/126/2
f 96/74/7 97/127/2 103/130/2
f 21/128/7 100/129/2 106/131/2
f 108/83/7 102/79/7 103/130/2
f 28/132/7 106/131/2 112/134/2
f 108/83/7 109/133/2 115/136/2
f 6/4/4 5/6/4 4/3/8
f 5/6/4 17/13/4 16/11/2
f 17/13/4 24/19/4 23/16/2
f 24/19/4 31/25/4 30/22/2
f 41/31/4 40/33/4 39/29/2
f 40/33/4 52/40/4 51/37/2
f 52/40/4 59/46/4 58/43/2
f 59/46/4 6/52/4 3/49/2
s 4
f 12/7/4 10/102/2 9/101/2
f 11/9/9 19/103/2 10/102/2
f 20/15/4 26/104/2 19/103/2
f 27/21/4 33/105/2 26/104/2
f 47/34/9 45/106/2 44/137/2
f 46/36/9 54/107/2 45/106/2
f 55/42/4 61/108/2 54/107/2
f 62/48/4 9/109/2 61/108/2
f 67/55/4 65/111/2 64/138/2
f 73/58/4 71/114/2 70/113/2
f 66/57/4 76/115/2 65/111/2
f 72/60/9 79/117/2 71/114/2
f 77/62/4 82/118/2 76/115/2
f 80/64/4 85/120/2 79/117/2
f 83/66/4 88/121/2 82/118/2
f 86/68/4 91/123/2 85/120/2
f 89/73/4 94/126/2 88/125/2
f 92/76/4 97/127/2 91/140/2
f 95/75/4 100/129/2 94/126/2
f 98/78/4 103/130/2 97/127/2
f 101/80/4 106/131/2 100/129/2
f 104/82/4 109/133/2 103/130/2
f 107/84/4 112/134/2 106/131/2
f 110/86/4 115/136/2 109/133/2
f 12/7/4 11/9/9 10/102/2
f 11/9/9 20/15/4 19/103/2
f 20/15/4 27/21/4 26/104/2
f 27/21/4 34/27/10 33/105/2
f 47/34/9 46/36/9 45/106/2
f 46/36/9 55/42/4 54/107/2
f 55/42/4 62/48/4 61/108/2
f 62/48/4 12/54/4 9/109/2
f 67/55/4 66/57/4 65/111/2
f 73/58/4 72/60/9 71/114/2
f 66/57/4 77/62/4 76/115/2
f 72/60/9 80/64/4 79/117/2
f 77/62/4 83/66/4 82/118/2
f 80/64/4 86/68/4 85/120/2
f 83/66/4 89/70/4 88/121/2
f 86/68/4 92/72/4 91/123/2
f 89/73/4 95/75/4 94/126/2
f 92/76/4 98/78/4 97/127/2
f 95/75/4 101/80/4 100/129/2
f 98/78/4 104/82/4 103/130/2
f 101/80/4 107/84/4 106/131/2
f 104/82/4 110/86/4 109/133/2
f 107/84/4 113/88/4 112/134/2
f 110/86/4 116/90/4 115/136/2
