# Blender v2.79 (sub 0) OBJ File: 'theshamancave.blend'
# www.blender.org
mtllib nexus002.002.mtl
o nexus002.002
v -0.493419 0.755911 -0.100000
v -0.507629 0.675323 -0.100000
v -0.507629 0.675323 -0.176394
v -0.493419 0.755911 -0.176394
v -0.548545 0.604455 -0.100000
v -0.548545 0.604455 -0.176394
v -0.611231 0.551855 -0.100000
v -0.611231 0.551855 -0.176394
v -0.688127 0.523867 -0.100000
v -0.688127 0.523867 -0.176394
v -0.769959 0.523867 -0.100000
v -0.769959 0.523867 -0.176394
v -0.846855 0.551855 -0.100000
v -0.846855 0.551855 -0.176394
v -0.909541 0.604455 -0.100000
v -0.909541 0.604455 -0.176394
v -0.950457 0.675323 -0.100000
v -0.950457 0.675323 -0.176394
v -0.964667 0.755911 -0.100000
v -0.964667 0.755911 -0.176394
v -0.950457 0.836499 -0.100000
v -0.950457 0.836499 -0.176394
v -0.909541 0.907367 -0.100000
v -0.909541 0.907367 -0.176394
v -0.846855 0.959967 -0.100000
v -0.846855 0.959967 -0.176394
v -0.769959 0.987955 -0.100000
v -0.769959 0.987955 -0.176394
v -0.688127 0.987955 -0.100000
v -0.688127 0.987955 -0.176394
v -0.611231 0.959968 -0.100000
v -0.611231 0.959968 -0.176394
v -0.548545 0.907368 -0.100000
v -0.548545 0.907368 -0.176394
v -0.507629 0.836500 -0.100000
v -0.507629 0.836500 -0.176394
v -0.531991 0.755911 -0.256326
v -0.543874 0.688516 -0.256326
v -0.619992 0.716220 -0.320713
v -0.612993 0.755911 -0.320713
v -0.578092 0.629249 -0.256326
v -0.640143 0.681316 -0.320713
v -0.630517 0.585259 -0.256326
v -0.671018 0.655409 -0.320713
v -0.694825 0.561853 -0.256326
v -0.708891 0.641624 -0.320713
v -0.763261 0.561853 -0.256326
v -0.749195 0.641624 -0.320713
v -0.827569 0.585259 -0.256326
v -0.787068 0.655409 -0.320713
v -0.879994 0.629249 -0.256326
v -0.817942 0.681316 -0.320713
v -0.914211 0.688516 -0.256326
v -0.838094 0.716220 -0.320713
v -0.926095 0.755911 -0.256326
v -0.845093 0.755911 -0.320713
v -0.914211 0.823307 -0.256326
v -0.838094 0.795603 -0.320713
v -0.879994 0.882574 -0.256326
v -0.817942 0.830507 -0.320713
v -0.827569 0.926564 -0.256326
v -0.787068 0.856414 -0.320713
v -0.763261 0.949970 -0.256326
v -0.749195 0.870198 -0.320713
v -0.694825 0.949970 -0.256326
v -0.708891 0.870198 -0.320713
v -0.630517 0.926564 -0.256326
v -0.671018 0.856414 -0.320713
v -0.578092 0.882574 -0.256326
v -0.640143 0.830507 -0.320713
v -0.543874 0.823307 -0.256326
v -0.619992 0.795603 -0.320713
v -0.619992 0.716220 -1.110544
v -0.612993 0.755911 -1.110544
v -0.640143 0.681316 -1.110544
v -0.671018 0.655409 -1.110544
v -0.708891 0.641624 -1.110544
v -0.749195 0.641624 -1.110544
v -0.787068 0.655409 -1.110544
v -0.817942 0.681316 -1.110544
v -0.838094 0.716220 -1.110544
v -0.845093 0.755911 -1.110544
v -0.838094 0.795603 -1.110544
v -0.817942 0.830507 -1.110544
v -0.787068 0.856414 -1.110544
v -0.749195 0.870198 -1.110544
v -0.708891 0.870198 -1.110544
v -0.671018 0.856414 -1.110544
v -0.640143 0.830507 -1.110544
v -0.619992 0.795603 -1.110544
vt 0.805556 0.000000
vt 0.750000 0.607909
vt 0.750000 0.000000
vt 0.861111 0.000000
vt 0.805556 0.607909
vt 0.916667 0.000000
vt 0.861111 0.607909
vt 0.972222 0.000000
vt 0.916667 0.607909
vt 0.027778 0.000000
vt -0.027778 0.607909
vt -0.027778 0.000000
vt 0.083333 0.000000
vt 0.027778 0.607909
vt 0.138889 0.000000
vt 0.083333 0.607909
vt 0.194444 0.000000
vt 0.138889 0.607909
vt 0.250000 0.000000
vt 0.194444 0.607909
vt 0.305556 0.000000
vt 0.250000 0.607909
vt 0.361111 0.000000
vt 0.305556 0.607909
vt 0.416667 0.000000
vt 0.361111 0.607909
vt 0.472222 0.000000
vt 0.416667 0.607909
vt 0.527778 0.000000
vt 0.472222 0.607909
vt 0.583333 0.000000
vt 0.527778 0.607909
vt 0.638889 0.000000
vt 0.583333 0.607909
vt 0.694444 0.000000
vt 0.638889 0.607909
vt 0.694444 0.607909
vt 0.805556 1.000000
vt 0.750000 1.000000
vt 0.750000 1.000000
vt 0.861111 1.000000
vt 0.805556 1.000000
vt 0.861111 1.000000
vt 0.916667 1.000000
vt 0.916667 1.000000
vt 0.972222 1.000000
vt -0.027778 1.000000
vt 0.027778 1.000000
vt -0.027778 1.000000
vt 0.083333 1.000000
vt 0.027778 1.000000
vt 0.138889 1.000000
vt 0.083333 1.000000
vt 0.194444 1.000000
vt 0.138889 1.000000
vt 0.194444 1.000000
vt 0.250000 1.000000
vt 0.305556 1.000000
vt 0.250000 1.000000
vt 0.361111 1.000000
vt 0.305556 1.000000
vt 0.416667 1.000000
vt 0.361111 1.000000
vt 0.472222 1.000000
vt 0.416667 1.000000
vt 0.527778 1.000000
vt 0.472222 1.000000
vt 0.583333 1.000000
vt 0.527778 1.000000
vt 0.638889 1.000000
vt 0.583333 1.000000
vt 0.694444 1.000000
vt 0.638889 1.000000
vt 0.694444 1.000000
vt 0.972222 1.000000
vt 0.527778 1.000000
vt 0.638889 1.000000
vt 0.972222 0.607909
vt 0.972222 1.000000
vt 0.750000 1.000000
vt 0.805556 1.000000
vt 0.861111 1.000000
vt 0.916667 1.000000
vt 0.027778 1.000000
vt 0.083333 1.000000
vt 0.138889 1.000000
vt 0.194444 1.000000
vt 0.250000 1.000000
vt 0.305556 1.000000
vt 0.361111 1.000000
vt 0.416667 1.000000
vt 0.472222 1.000000
vt 0.583333 1.000000
vt 0.694444 1.000000
vt -0.027778 1.000000
vn 0.9397 -0.3420 0.0000
vn 0.9760 -0.0000 -0.2177
vn 1.0000 -0.0000 0.0000
vn 0.7660 -0.6428 0.0000
vn 0.9171 -0.3338 -0.2177
vn 0.5000 -0.8660 0.0000
vn 0.7477 -0.6274 -0.2177
vn 0.1736 -0.9848 0.0000
vn 0.4880 -0.8452 -0.2177
vn -0.1736 -0.9848 0.0000
vn 0.1695 -0.9612 -0.2177
vn -0.5000 -0.8660 0.0000
vn -0.1695 -0.9612 -0.2177
vn -0.7660 -0.6428 0.0000
vn -0.4880 -0.8452 -0.2177
vn -0.9397 -0.3420 0.0000
vn -0.7477 -0.6274 -0.2177
vn -1.0000 -0.0000 0.0000
vn -0.9171 -0.3338 -0.2177
vn -0.9397 0.3420 0.0000
vn -0.9760 -0.0000 -0.2177
vn -0.7660 0.6428 0.0000
vn -0.9171 0.3338 -0.2177
vn -0.5000 0.8660 0.0000
vn -0.7477 0.6274 -0.2177
vn -0.1736 0.9848 0.0000
vn -0.4880 0.8452 -0.2177
vn 0.1736 0.9848 0.0000
vn -0.1695 0.9612 -0.2177
vn 0.5000 0.8660 0.0000
vn 0.1695 0.9612 -0.2177
vn 0.7660 0.6428 0.0000
vn 0.4880 0.8453 -0.2177
vn 0.9397 0.3420 0.0000
vn 0.7477 0.6274 -0.2177
vn 0.9171 0.3338 -0.2177
vn 0.7427 -0.2703 -0.6126
vn 0.8903 -0.0000 -0.4554
vn 0.7904 -0.0000 -0.6126
vn 0.6821 -0.5724 -0.4551
vn 0.8370 -0.3047 -0.4546
vn 0.6055 -0.5080 -0.6126
vn 0.4452 -0.7712 -0.4551
vn 0.3952 -0.6845 -0.6126
vn 0.1546 -0.8769 -0.4551
vn 0.1372 -0.7784 -0.6126
vn -0.1546 -0.8768 -0.4554
vn -0.3952 -0.6845 -0.6126
vn -0.1372 -0.7784 -0.6126
vn -0.6055 -0.5080 -0.6126
vn -0.4452 -0.7712 -0.4551
vn -0.8368 -0.3045 -0.4551
vn -0.6823 -0.5726 -0.4546
vn -0.7427 -0.2703 -0.6126
vn -0.8903 0.0000 -0.4554
vn -0.7427 0.2703 -0.6126
vn -0.7904 -0.0000 -0.6126
vn -0.6055 0.5080 -0.6126
vn -0.8367 0.3045 -0.4551
vn -0.4452 0.7710 -0.4553
vn -0.6823 0.5726 -0.4546
vn -0.1372 0.7784 -0.6126
vn -0.3952 0.6845 -0.6126
vn 0.1372 0.7784 -0.6126
vn -0.1546 0.8769 -0.4551
vn 0.4452 0.7710 -0.4553
vn 0.1547 0.8772 -0.4546
vn 0.6055 0.5080 -0.6126
vn 0.3952 0.6845 -0.6126
vn 0.7427 0.2703 -0.6126
vn 0.6821 0.5724 -0.4551
vn 0.8370 0.3046 -0.4546
vn 0.1289 -0.7310 -0.6700
vn 0.1289 0.7310 -0.6700
vn 0.5686 0.4772 -0.6700
vn 0.7423 -0.0000 -0.6701
vn 0.6975 -0.2539 -0.6701
vn 0.5686 -0.4772 -0.6700
vn 0.3711 -0.6429 -0.6700
vn -0.1289 -0.7310 -0.6700
vn -0.3711 -0.6429 -0.6700
vn -0.5686 -0.4772 -0.6700
vn -0.6976 -0.2539 -0.6700
vn -0.7423 0.0000 -0.6700
vn -0.6976 0.2539 -0.6700
vn -0.5686 0.4772 -0.6701
vn -0.3712 0.6428 -0.6700
vn -0.1289 0.7310 -0.6700
vn 0.3712 0.6429 -0.6700
vn 0.6975 0.2539 -0.6701
vn 0.8402 -0.3057 -0.4479
vn 0.7501 -0.0000 -0.6613
vn 0.8941 -0.0000 -0.4479
vn 0.6849 -0.5747 -0.4479
vn 0.7049 -0.2564 -0.6613
vn 0.4470 -0.7743 -0.4479
vn 0.5745 -0.4823 -0.6613
vn 0.1552 -0.8805 -0.4479
vn 0.3750 -0.6496 -0.6613
vn -0.1552 -0.8805 -0.4479
vn 0.1302 -0.7387 -0.6613
vn -0.4470 -0.7743 -0.4479
vn -0.1302 -0.7387 -0.6613
vn -0.6849 -0.5747 -0.4479
vn -0.3750 -0.6496 -0.6613
vn -0.8402 -0.3057 -0.4479
vn -0.5746 -0.4822 -0.6613
vn -0.8941 0.0000 -0.4479
vn -0.7050 -0.2564 -0.6613
vn -0.8402 0.3059 -0.4479
vn -0.7501 0.0000 -0.6613
vn -0.6849 0.5747 -0.4479
vn -0.7049 0.2566 -0.6613
vn -0.4471 0.7743 -0.4479
vn -0.5746 0.4822 -0.6613
vn -0.1553 0.8805 -0.4479
vn -0.3751 0.6496 -0.6613
vn 0.1553 0.8805 -0.4479
vn -0.1303 0.7387 -0.6613
vn 0.4471 0.7743 -0.4479
vn 0.1303 0.7387 -0.6613
vn 0.6849 0.5747 -0.4479
vn 0.3751 0.6496 -0.6613
vn 0.8402 0.3058 -0.4479
vn 0.5745 0.4823 -0.6613
vn 0.7049 0.2566 -0.6613
usemtl wire_228153184.007
s 1
f 2/1/1 4/2/2 1/3/3
f 5/4/4 3/5/5 2/1/1
f 7/6/6 6/7/7 5/4/4
f 9/8/8 8/9/9 7/6/6
f 11/10/10 10/11/11 9/12/8
f 13/13/12 12/14/13 11/10/10
f 15/15/14 14/16/15 13/13/12
f 17/17/16 16/18/17 15/15/14
f 19/19/18 18/20/19 17/17/16
f 21/21/20 20/22/21 19/19/18
f 23/23/22 22/24/23 21/21/20
f 25/25/24 24/26/25 23/23/22
f 27/27/26 26/28/27 25/25/24
f 29/29/28 28/30/29 27/27/26
f 31/31/30 30/32/31 29/29/28
f 33/33/32 32/34/33 31/31/30
f 35/35/34 34/36/35 33/33/32
f 1/3/3 36/37/36 35/35/34
f 38/38/37 40/39/38 37/40/39
f 38/38/37 42/41/40 39/42/41
f 41/43/42 44/44/43 42/41/40
f 43/45/44 46/46/45 44/44/43
f 45/47/46 48/48/47 46/49/45
f 49/50/48 48/48/47 47/51/49
f 51/52/50 50/53/51 49/50/48
f 51/52/50 54/54/52 52/55/53
f 53/56/54 56/57/55 54/54/52
f 57/58/56 56/57/55 55/59/57
f 59/60/58 58/61/59 57/58/56
f 59/60/58 62/62/60 60/63/61
f 63/64/62 62/62/60 61/65/63
f 65/66/64 64/67/65 63/64/62
f 65/66/64 68/68/66 66/69/67
f 69/70/68 68/68/66 67/71/69
f 71/72/70 70/73/71 69/70/68
f 71/72/70 40/39/38 72/74/72
f 77/75/73 87/76/74 89/77/75
f 38/38/37 4/2/2 3/5/5
f 41/43/42 3/5/5 6/7/7
f 43/45/44 6/7/7 8/9/9
f 10/78/11 43/45/44 8/9/9
f 12/14/13 45/47/46 10/11/11
f 49/50/48 12/14/13 14/16/15
f 16/18/17 49/50/48 14/16/15
f 18/20/19 51/52/50 16/18/17
f 20/22/21 53/56/54 18/20/19
f 22/24/23 55/59/57 20/22/21
f 24/26/25 57/58/56 22/24/23
f 26/28/27 59/60/58 24/26/25
f 28/30/29 61/65/63 26/28/27
f 65/66/64 28/30/29 30/32/31
f 67/71/69 30/32/31 32/34/33
f 34/36/35 67/71/69 32/34/33
f 36/37/36 69/70/68 34/36/35
f 4/2/2 71/72/70 36/37/36
f 2/1/1 3/5/5 4/2/2
f 5/4/4 6/7/7 3/5/5
f 7/6/6 8/9/9 6/7/7
f 9/8/8 10/78/11 8/9/9
f 11/10/10 12/14/13 10/11/11
f 13/13/12 14/16/15 12/14/13
f 15/15/14 16/18/17 14/16/15
f 17/17/16 18/20/19 16/18/17
f 19/19/18 20/22/21 18/20/19
f 21/21/20 22/24/23 20/22/21
f 23/23/22 24/26/25 22/24/23
f 25/25/24 26/28/27 24/26/25
f 27/27/26 28/30/29 26/28/27
f 29/29/28 30/32/31 28/30/29
f 31/31/30 32/34/33 30/32/31
f 33/33/32 34/36/35 32/34/33
f 35/35/34 36/37/36 34/36/35
f 1/3/3 4/2/2 36/37/36
f 38/38/37 39/42/41 40/39/38
f 38/38/37 41/43/42 42/41/40
f 41/43/42 43/45/44 44/44/43
f 43/45/44 45/79/46 46/46/45
f 45/47/46 47/51/49 48/48/47
f 49/50/48 50/53/51 48/48/47
f 51/52/50 52/55/53 50/53/51
f 51/52/50 53/56/54 54/54/52
f 53/56/54 55/59/57 56/57/55
f 57/58/56 58/61/59 56/57/55
f 59/60/58 60/63/61 58/61/59
f 59/60/58 61/65/63 62/62/60
f 63/64/62 64/67/65 62/62/60
f 65/66/64 66/69/67 64/67/65
f 65/66/64 67/71/69 68/68/66
f 69/70/68 70/73/71 68/68/66
f 71/72/70 72/74/72 70/73/71
f 71/72/70 37/40/39 40/39/38
f 74/80/76 73/81/77 77/75/73
f 75/82/78 76/83/79 77/75/73
f 77/75/73 78/84/80 79/85/81
f 79/85/81 80/86/82 77/75/73
f 81/87/83 82/88/84 83/89/85
f 83/89/85 84/90/86 81/87/83
f 85/91/87 86/92/88 87/76/74
f 87/76/74 88/93/89 89/77/75
f 89/77/75 90/94/90 77/75/73
f 73/81/77 75/82/78 77/75/73
f 77/75/73 80/86/82 81/87/83
f 81/87/83 84/90/86 85/91/87
f 85/91/87 87/76/74 77/75/73
f 90/94/90 74/80/76 77/75/73
f 77/75/73 81/87/83 85/91/87
f 38/38/37 37/40/39 4/2/2
f 41/43/42 38/38/37 3/5/5
f 43/45/44 41/43/42 6/7/7
f 10/78/11 45/79/46 43/45/44
f 12/14/13 47/51/49 45/47/46
f 49/50/48 47/51/49 12/14/13
f 16/18/17 51/52/50 49/50/48
f 18/20/19 53/56/54 51/52/50
f 20/22/21 55/59/57 53/56/54
f 22/24/23 57/58/56 55/59/57
f 24/26/25 59/60/58 57/58/56
f 26/28/27 61/65/63 59/60/58
f 28/30/29 63/64/62 61/65/63
f 65/66/64 63/64/62 28/30/29
f 67/71/69 65/66/64 30/32/31
f 34/36/35 69/70/68 67/71/69
f 36/37/36 71/72/70 69/70/68
f 4/2/2 37/40/39 71/72/70
s 2
f 39/42/91 74/80/92 40/39/93
f 42/41/94 73/81/95 39/42/91
f 44/44/96 75/82/97 42/41/94
f 46/46/98 76/83/99 44/44/96
f 48/48/100 77/95/101 46/49/98
f 50/53/102 78/84/103 48/48/100
f 52/55/104 79/85/105 50/53/102
f 54/54/106 80/86/107 52/55/104
f 56/57/108 81/87/109 54/54/106
f 58/61/110 82/88/111 56/57/108
f 60/63/112 83/89/113 58/61/110
f 62/62/114 84/90/115 60/63/112
f 64/67/116 85/91/117 62/62/114
f 66/69/118 86/92/119 64/67/116
f 68/68/120 87/76/121 66/69/118
f 70/73/122 88/93/123 68/68/120
f 72/74/124 89/77/125 70/73/122
f 40/39/93 90/94/126 72/74/124
f 39/42/91 73/81/95 74/80/92
f 42/41/94 75/82/97 73/81/95
f 44/44/96 76/83/99 75/82/97
f 46/46/98 77/75/101 76/83/99
f 48/48/100 78/84/103 77/95/101
f 50/53/102 79/85/105 78/84/103
f 52/55/104 80/86/107 79/85/105
f 54/54/106 81/87/109 80/86/107
f 56/57/108 82/88/111 81/87/109
f 58/61/110 83/89/113 82/88/111
f 60/63/112 84/90/115 83/89/113
f 62/62/114 85/91/117 84/90/115
f 64/67/116 86/92/119 85/91/117
f 66/69/118 87/76/121 86/92/119
f 68/68/120 88/93/123 87/76/121
f 70/73/122 89/77/125 88/93/123
f 72/74/124 90/94/126 89/77/125
f 40/39/93 74/80/92 90/94/126
