# Blender v2.79 (sub 0) OBJ File: 'theshamancave.blend'
# www.blender.org
mtllib nexus002.mtl
o nexus002
v 0.987741 0.755911 -0.100000
v 0.973531 0.675323 -0.100000
v 0.973531 0.675323 -0.176394
v 0.987741 0.755911 -0.176394
v 0.932616 0.604455 -0.100000
v 0.932616 0.604455 -0.176394
v 0.869929 0.551855 -0.100000
v 0.869929 0.551855 -0.176394
v 0.793033 0.523867 -0.100000
v 0.793033 0.523867 -0.176394
v 0.711202 0.523867 -0.100000
v 0.711202 0.523867 -0.176394
v 0.634305 0.551855 -0.100000
v 0.634305 0.551855 -0.176394
v 0.571619 0.604455 -0.100000
v 0.571619 0.604455 -0.176394
v 0.530703 0.675323 -0.100000
v 0.530703 0.675323 -0.176394
v 0.516494 0.755911 -0.100000
v 0.516494 0.755911 -0.176394
v 0.530703 0.836499 -0.100000
v 0.530703 0.836499 -0.176394
v 0.571619 0.907367 -0.100000
v 0.571619 0.907367 -0.176394
v 0.634305 0.959967 -0.100000
v 0.634305 0.959967 -0.176394
v 0.711202 0.987955 -0.100000
v 0.711202 0.987955 -0.176394
v 0.793033 0.987955 -0.100000
v 0.793033 0.987955 -0.176394
v 0.869929 0.959968 -0.100000
v 0.869929 0.959968 -0.176394
v 0.932615 0.907368 -0.100000
v 0.932615 0.907368 -0.176394
v 0.973531 0.836500 -0.100000
v 0.973531 0.836500 -0.176394
v 0.949170 0.755911 -0.256326
v 0.937286 0.688516 -0.256326
v 0.861169 0.716220 -0.320713
v 0.868167 0.755911 -0.320713
v 0.903068 0.629249 -0.256326
v 0.841017 0.681316 -0.320713
v 0.850644 0.585259 -0.256326
v 0.810142 0.655409 -0.320713
v 0.786335 0.561853 -0.256326
v 0.772269 0.641624 -0.320713
v 0.717900 0.561853 -0.256326
v 0.731965 0.641624 -0.320713
v 0.653591 0.585259 -0.256326
v 0.694092 0.655409 -0.320713
v 0.601167 0.629249 -0.256326
v 0.663218 0.681316 -0.320713
v 0.566949 0.688516 -0.256326
v 0.643066 0.716220 -0.320713
v 0.555065 0.755911 -0.256326
v 0.636067 0.755911 -0.320713
v 0.566949 0.823307 -0.256326
v 0.643066 0.795603 -0.320713
v 0.601167 0.882574 -0.256326
v 0.663218 0.830507 -0.320713
v 0.653591 0.926564 -0.256326
v 0.694092 0.856414 -0.320713
v 0.717900 0.949970 -0.256326
v 0.731965 0.870198 -0.320713
v 0.786335 0.949970 -0.256326
v 0.772269 0.870198 -0.320713
v 0.850643 0.926564 -0.256326
v 0.810142 0.856414 -0.320713
v 0.903068 0.882574 -0.256326
v 0.841017 0.830507 -0.320713
v 0.937286 0.823307 -0.256326
v 0.861169 0.795603 -0.320713
v 0.861169 0.716220 -1.110544
v 0.868167 0.755911 -1.110544
v 0.841017 0.681316 -1.110544
v 0.810142 0.655409 -1.110544
v 0.772269 0.641624 -1.110544
v 0.731965 0.641624 -1.110544
v 0.694092 0.655409 -1.110544
v 0.663218 0.681316 -1.110544
v 0.643066 0.716220 -1.110544
v 0.636067 0.755911 -1.110544
v 0.643066 0.795603 -1.110544
v 0.663218 0.830507 -1.110544
v 0.694092 0.856414 -1.110544
v 0.731965 0.870198 -1.110544
v 0.772269 0.870198 -1.110544
v 0.810142 0.856414 -1.110544
v 0.841017 0.830507 -1.110544
v 0.861169 0.795603 -1.110544
vt 0.212701 0.827907
vt 0.150080 0.773612
vt 0.212701 0.773612
vt 0.212701 0.881282
vt 0.150080 0.827907
vt 0.212701 0.932710
vt 0.150080 0.881282
vt 0.212701 0.999500
vt 0.150080 0.932710
vt 0.212701 0.049921
vt 0.150080 0.004405
vt 0.212701 0.004405
vt 0.212701 0.103982
vt 0.150080 0.049921
vt 0.212701 0.159400
vt 0.150080 0.103982
vt 0.212701 0.215346
vt 0.150080 0.159400
vt 0.212701 0.271538
vt 0.150080 0.215346
vt 0.212701 0.327840
vt 0.150080 0.271538
vt 0.212701 0.384164
vt 0.150080 0.327840
vt 0.212701 0.440461
vt 0.150080 0.384164
vt 0.212701 0.496495
vt 0.150080 0.440461
vt 0.212701 0.552353
vt 0.150080 0.496495
vt 0.212701 0.608061
vt 0.150080 0.552353
vt 0.212701 0.663409
vt 0.150080 0.608061
vt 0.212701 0.718474
vt 0.150080 0.663409
vt 0.150080 0.718474
vt 0.081530 0.773612
vt 0.000500 0.827907
vt 0.000500 0.773612
vt 0.081530 0.881282
vt 0.081530 0.827907
vt 0.000500 0.932710
vt 0.000500 0.881282
vt 0.081530 0.999500
vt 0.081530 0.932710
vt 0.081530 0.049921
vt 0.000500 0.004405
vt 0.081530 0.004405
vt 0.081530 0.103982
vt 0.000500 0.049921
vt 0.081530 0.159400
vt 0.000500 0.103982
vt 0.000500 0.215346
vt 0.000500 0.159400
vt 0.081530 0.215346
vt 0.000500 0.271538
vt 0.081530 0.327840
vt 0.081530 0.271538
vt 0.081530 0.384164
vt 0.000500 0.327840
vt 0.000500 0.440461
vt 0.000500 0.384164
vt 0.081530 0.496495
vt 0.081530 0.440461
vt 0.000500 0.552353
vt 0.000500 0.496495
vt 0.081530 0.552353
vt 0.000500 0.608061
vt 0.081530 0.608061
vt 0.000500 0.663409
vt 0.081530 0.663409
vt 0.000500 0.718474
vt 0.081530 0.718474
vt 0.905587 0.182643
vt 0.905586 0.000500
vt 0.960369 0.032129
vt 0.150080 0.999500
vt 0.000500 0.999500
vt 0.982004 0.091571
vt 0.976427 0.123200
vt 0.960370 0.151014
vt 0.935767 0.171659
vt 0.873469 0.182643
vt 0.843289 0.171659
vt 0.818686 0.151014
vt 0.802628 0.123200
vt 0.797051 0.091571
vt 0.802628 0.059943
vt 0.818687 0.032129
vt 0.843290 0.011485
vt 0.873470 0.000500
vt 0.935766 0.011485
vt 0.976427 0.059943
vt 0.696974 0.000507
vt 0.664860 0.629940
vt 0.664860 0.000512
vt 0.729090 0.000503
vt 0.696974 0.629935
vt 0.761207 0.000501
vt 0.729090 0.629931
vt 0.793324 0.000500
vt 0.761207 0.629929
vt 0.247375 0.000617
vt 0.215259 0.630047
vt 0.215256 0.000618
vt 0.279493 0.000615
vt 0.247377 0.630046
vt 0.311611 0.000611
vt 0.279495 0.630044
vt 0.343728 0.000606
vt 0.311611 0.630040
vt 0.375844 0.000599
vt 0.343728 0.630034
vt 0.407959 0.000591
vt 0.375844 0.630028
vt 0.440072 0.000582
vt 0.407959 0.630020
vt 0.472183 0.000571
vt 0.440075 0.630010
vt 0.504294 0.000560
vt 0.472191 0.629999
vt 0.536406 0.000548
vt 0.504304 0.629988
vt 0.568518 0.000537
vt 0.536415 0.629976
vt 0.600632 0.000527
vt 0.568525 0.629965
vt 0.632746 0.000519
vt 0.600634 0.629955
vt 0.632746 0.629947
vt 0.793325 0.629928
vn 0.9397 -0.3420 0.0000
vn 0.9760 -0.0000 -0.2177
vn 1.0000 -0.0000 0.0000
vn 0.7660 -0.6428 0.0000
vn 0.9171 -0.3338 -0.2177
vn 0.5000 -0.8660 0.0000
vn 0.7477 -0.6274 -0.2177
vn 0.1736 -0.9848 0.0000
vn 0.4880 -0.8453 -0.2177
vn -0.1736 -0.9848 0.0000
vn 0.1695 -0.9612 -0.2177
vn -0.5000 -0.8660 0.0000
vn -0.1695 -0.9612 -0.2177
vn -0.7660 -0.6428 0.0000
vn -0.4880 -0.8452 -0.2177
vn -0.9397 -0.3420 0.0000
vn -0.7477 -0.6274 -0.2177
vn -1.0000 -0.0000 0.0000
vn -0.9171 -0.3338 -0.2177
vn -0.9397 0.3420 0.0000
vn -0.9760 -0.0000 -0.2177
vn -0.7660 0.6428 0.0000
vn -0.9171 0.3338 -0.2177
vn -0.5000 0.8660 0.0000
vn -0.7477 0.6274 -0.2177
vn -0.1736 0.9848 0.0000
vn -0.4880 0.8452 -0.2177
vn 0.1736 0.9848 0.0000
vn -0.1695 0.9612 -0.2177
vn 0.5000 0.8660 0.0000
vn 0.1695 0.9612 -0.2177
vn 0.7660 0.6428 0.0000
vn 0.4880 0.8453 -0.2177
vn 0.9397 0.3420 0.0000
vn 0.7477 0.6274 -0.2177
vn 0.9171 0.3338 -0.2177
vn 0.7904 -0.0000 -0.6126
vn 0.8366 -0.3045 -0.4554
vn 0.8907 -0.0000 -0.4546
vn 0.6055 -0.5080 -0.6126
vn 0.7427 -0.2703 -0.6126
vn 0.4451 -0.7710 -0.4553
vn 0.6823 -0.5725 -0.4546
vn 0.1372 -0.7784 -0.6126
vn 0.3952 -0.6845 -0.6126
vn -0.1372 -0.7784 -0.6126
vn 0.1546 -0.8769 -0.4551
vn -0.3952 -0.6845 -0.6126
vn -0.1546 -0.8769 -0.4551
vn -0.6055 -0.5080 -0.6126
vn -0.4452 -0.7712 -0.4551
vn -0.8367 -0.3045 -0.4551
vn -0.6823 -0.5725 -0.4546
vn -0.7427 -0.2703 -0.6126
vn -0.8903 0.0000 -0.4554
vn -0.7427 0.2703 -0.6126
vn -0.7904 -0.0000 -0.6126
vn -0.6055 0.5080 -0.6126
vn -0.8367 0.3045 -0.4551
vn -0.4452 0.7710 -0.4554
vn -0.6823 0.5725 -0.4546
vn -0.1372 0.7784 -0.6126
vn -0.3952 0.6845 -0.6126
vn 0.1546 0.8769 -0.4551
vn -0.1547 0.8772 -0.4546
vn 0.1372 0.7784 -0.6126
vn 0.4452 0.7712 -0.4551
vn 0.3952 0.6845 -0.6126
vn 0.6821 0.5724 -0.4551
vn 0.6055 0.5080 -0.6126
vn 0.8366 0.3045 -0.4554
vn 0.7427 0.2703 -0.6126
vn 0.1289 -0.7310 -0.6700
vn 0.1289 0.7310 -0.6700
vn 0.5687 0.4771 -0.6700
vn 0.7423 -0.0000 -0.6701
vn 0.6975 -0.2539 -0.6700
vn 0.5687 -0.4771 -0.6701
vn 0.3711 -0.6429 -0.6700
vn -0.1289 -0.7310 -0.6700
vn -0.3711 -0.6429 -0.6700
vn -0.5686 -0.4772 -0.6700
vn -0.6976 -0.2539 -0.6700
vn -0.7423 0.0000 -0.6700
vn -0.6976 0.2539 -0.6700
vn -0.5686 0.4772 -0.6701
vn -0.3712 0.6428 -0.6700
vn -0.1289 0.7310 -0.6700
vn 0.3712 0.6429 -0.6700
vn 0.6975 0.2539 -0.6701
vn 0.8401 -0.3059 -0.4479
vn 0.7501 0.0001 -0.6613
vn 0.8941 0.0001 -0.4479
vn 0.6849 -0.5748 -0.4479
vn 0.7048 -0.2567 -0.6613
vn 0.4470 -0.7743 -0.4479
vn 0.5746 -0.4822 -0.6613
vn 0.1552 -0.8805 -0.4479
vn 0.3750 -0.6496 -0.6613
vn -0.1552 -0.8805 -0.4479
vn 0.1302 -0.7387 -0.6613
vn -0.4470 -0.7743 -0.4479
vn -0.1302 -0.7387 -0.6613
vn -0.6849 -0.5747 -0.4479
vn -0.3751 -0.6496 -0.6613
vn -0.8402 -0.3058 -0.4479
vn -0.5746 -0.4822 -0.6613
vn -0.8941 0.0000 -0.4479
vn -0.7049 -0.2564 -0.6613
vn -0.8402 0.3057 -0.4479
vn -0.7501 0.0000 -0.6613
vn -0.6849 0.5747 -0.4479
vn -0.7050 0.2564 -0.6613
vn -0.4471 0.7743 -0.4479
vn -0.5746 0.4822 -0.6613
vn -0.1553 0.8805 -0.4479
vn -0.3751 0.6496 -0.6613
vn 0.1553 0.8805 -0.4479
vn -0.1303 0.7387 -0.6613
vn 0.4471 0.7743 -0.4479
vn 0.1303 0.7387 -0.6613
vn 0.6850 0.5746 -0.4479
vn 0.3752 0.6495 -0.6613
vn 0.8401 0.3059 -0.4479
vn 0.5747 0.4821 -0.6613
vn 0.7048 0.2567 -0.6613
usemtl Material__29
s 1
f 2/1/1 4/2/2 1/3/3
f 5/4/4 3/5/5 2/1/1
f 7/6/6 6/7/7 5/4/4
f 9/8/8 8/9/9 7/6/6
f 11/10/10 10/11/11 9/12/8
f 13/13/12 12/14/13 11/10/10
f 15/15/14 14/16/15 13/13/12
f 17/17/16 16/18/17 15/15/14
f 19/19/18 18/20/19 17/17/16
f 21/21/20 20/22/21 19/19/18
f 23/23/22 22/24/23 21/21/20
f 25/25/24 24/26/25 23/23/22
f 27/27/26 26/28/27 25/25/24
f 29/29/28 28/30/29 27/27/26
f 31/31/30 30/32/31 29/29/28
f 33/33/32 32/34/33 31/31/30
f 35/35/34 34/36/35 33/33/32
f 1/3/3 36/37/36 35/35/34
f 37/38/37 39/39/38 40/40/39
f 41/41/40 39/39/38 38/42/41
f 41/41/40 44/43/42 42/44/43
f 45/45/44 44/43/42 43/46/45
f 47/47/46 46/48/47 45/49/44
f 49/50/48 48/51/49 47/47/46
f 51/52/50 50/53/51 49/50/48
f 51/52/50 54/54/52 52/55/53
f 53/56/54 56/57/55 54/54/52
f 57/58/56 56/57/55 55/59/57
f 59/60/58 58/61/59 57/58/56
f 59/60/58 62/62/60 60/63/61
f 63/64/62 62/62/60 61/65/63
f 63/64/62 66/66/64 64/67/65
f 65/68/66 68/69/67 66/66/64
f 67/70/68 70/71/69 68/69/67
f 69/72/70 72/73/71 70/71/69
f 37/38/37 72/73/71 71/74/72
f 77/75/73 87/76/74 89/77/75
f 38/42/41 4/2/2 3/5/5
f 41/41/40 3/5/5 6/7/7
f 43/46/45 6/7/7 8/9/9
f 45/45/44 8/9/9 10/78/11
f 12/14/13 45/49/44 10/11/11
f 49/50/48 12/14/13 14/16/15
f 16/18/17 49/50/48 14/16/15
f 18/20/19 51/52/50 16/18/17
f 20/22/21 53/56/54 18/20/19
f 22/24/23 55/59/57 20/22/21
f 24/26/25 57/58/56 22/24/23
f 26/28/27 59/60/58 24/26/25
f 28/30/29 61/65/63 26/28/27
f 65/68/66 28/30/29 30/32/31
f 67/70/68 30/32/31 32/34/33
f 34/36/35 67/70/68 32/34/33
f 36/37/36 69/72/70 34/36/35
f 4/2/2 71/74/72 36/37/36
f 2/1/1 3/5/5 4/2/2
f 5/4/4 6/7/7 3/5/5
f 7/6/6 8/9/9 6/7/7
f 9/8/8 10/78/11 8/9/9
f 11/10/10 12/14/13 10/11/11
f 13/13/12 14/16/15 12/14/13
f 15/15/14 16/18/17 14/16/15
f 17/17/16 18/20/19 16/18/17
f 19/19/18 20/22/21 18/20/19
f 21/21/20 22/24/23 20/22/21
f 23/23/22 24/26/25 22/24/23
f 25/25/24 26/28/27 24/26/25
f 27/27/26 28/30/29 26/28/27
f 29/29/28 30/32/31 28/30/29
f 31/31/30 32/34/33 30/32/31
f 33/33/32 34/36/35 32/34/33
f 35/35/34 36/37/36 34/36/35
f 1/3/3 4/2/2 36/37/36
f 37/38/37 38/42/41 39/39/38
f 41/41/40 42/44/43 39/39/38
f 41/41/40 43/46/45 44/43/42
f 45/45/44 46/79/47 44/43/42
f 47/47/46 48/51/49 46/48/47
f 49/50/48 50/53/51 48/51/49
f 51/52/50 52/55/53 50/53/51
f 51/52/50 53/56/54 54/54/52
f 53/56/54 55/59/57 56/57/55
f 57/58/56 58/61/59 56/57/55
f 59/60/58 60/63/61 58/61/59
f 59/60/58 61/65/63 62/62/60
f 63/64/62 64/67/65 62/62/60
f 63/64/62 65/68/66 66/66/64
f 65/68/66 67/70/68 68/69/67
f 67/70/68 69/72/70 70/71/69
f 69/72/70 71/74/72 72/73/71
f 37/38/37 40/40/39 72/73/71
f 74/80/76 73/81/77 75/82/78
f 75/82/78 76/83/79 74/80/76
f 77/75/73 78/84/80 79/85/81
f 79/85/81 80/86/82 77/75/73
f 81/87/83 82/88/84 83/89/85
f 83/89/85 84/90/86 81/87/83
f 85/91/87 86/92/88 87/76/74
f 87/76/74 88/93/89 89/77/75
f 89/77/75 90/94/90 74/80/76
f 74/80/76 76/83/79 77/75/73
f 77/75/73 80/86/82 81/87/83
f 81/87/83 84/90/86 85/91/87
f 85/91/87 87/76/74 77/75/73
f 89/77/75 74/80/76 77/75/73
f 77/75/73 81/87/83 85/91/87
f 38/42/41 37/38/37 4/2/2
f 41/41/40 38/42/41 3/5/5
f 43/46/45 41/41/40 6/7/7
f 45/45/44 43/46/45 8/9/9
f 12/14/13 47/47/46 45/49/44
f 49/50/48 47/47/46 12/14/13
f 16/18/17 51/52/50 49/50/48
f 18/20/19 53/56/54 51/52/50
f 20/22/21 55/59/57 53/56/54
f 22/24/23 57/58/56 55/59/57
f 24/26/25 59/60/58 57/58/56
f 26/28/27 61/65/63 59/60/58
f 28/30/29 63/64/62 61/65/63
f 65/68/66 63/64/62 28/30/29
f 67/70/68 65/68/66 30/32/31
f 34/36/35 69/72/70 67/70/68
f 36/37/36 71/74/72 69/72/70
f 4/2/2 37/38/37 71/74/72
s 2
f 39/95/91 74/96/92 40/97/93
f 42/98/94 73/99/95 39/95/91
f 44/100/96 75/101/97 42/98/94
f 46/102/98 76/103/99 44/100/96
f 48/104/100 77/105/101 46/106/98
f 50/107/102 78/108/103 48/104/100
f 52/109/104 79/110/105 50/107/102
f 54/111/106 80/112/107 52/109/104
f 56/113/108 81/114/109 54/111/106
f 58/115/110 82/116/111 56/113/108
f 60/117/112 83/118/113 58/115/110
f 62/119/114 84/120/115 60/117/112
f 64/121/116 85/122/117 62/119/114
f 66/123/118 86/124/119 64/121/116
f 68/125/120 87/126/121 66/123/118
f 70/127/122 88/128/123 68/125/120
f 72/129/124 89/130/125 70/127/122
f 40/97/93 90/131/126 72/129/124
f 39/95/91 73/99/95 74/96/92
f 42/98/94 75/101/97 73/99/95
f 44/100/96 76/103/99 75/101/97
f 46/102/98 77/132/101 76/103/99
f 48/104/100 78/108/103 77/105/101
f 50/107/102 79/110/105 78/108/103
f 52/109/104 80/112/107 79/110/105
f 54/111/106 81/114/109 80/112/107
f 56/113/108 82/116/111 81/114/109
f 58/115/110 83/118/113 82/116/111
f 60/117/112 84/120/115 83/118/113
f 62/119/114 85/122/117 84/120/115
f 64/121/116 86/124/119 85/122/117
f 66/123/118 87/126/121 86/124/119
f 68/125/120 88/128/123 87/126/121
f 70/127/122 89/130/125 88/128/123
f 72/129/124 90/131/126 89/130/125
f 40/97/93 74/96/92 90/131/126
