# Blender v2.79 (sub 0) OBJ File: 'theshamancave.blend'
# www.blender.org
mtllib Object002.002.mtl
o Object002.002
v -3.721086 183.841019 -43.245090
v -4.759926 183.216827 -43.245090
v -5.956933 183.027222 -43.245090
v -7.176394 183.321564 -43.245090
v -8.185730 184.066544 -43.245090
v -8.809900 185.105362 -43.245090
v -8.999512 186.302383 -43.245090
v -8.705169 187.521835 -43.245090
v -7.960206 188.531174 -43.245090
v -6.921366 189.155350 -43.245090
v -5.724360 189.344955 -43.245090
v -4.504898 189.050613 -43.245090
v -3.495563 188.305634 -43.245090
v -2.871392 187.266815 -43.245090
v -2.681781 186.069794 -43.245090
v -2.976125 184.850342 -43.245090
v -2.976125 184.850342 -42.922424
v -3.721086 183.841019 -42.922424
v -2.681781 186.069794 -42.922424
v -5.956933 183.027222 -42.922424
v -7.176394 183.321564 -42.922424
v -8.185730 184.066544 -42.922424
v -8.705169 187.521835 -42.922424
v -7.960206 188.531174 -42.922424
v -8.999512 186.302383 -42.922424
v -5.724360 189.344955 -42.922424
v -4.504898 189.050613 -42.922424
v -3.495563 188.305634 -42.922424
v -4.759926 183.216827 -42.922424
v -8.809900 185.105362 -42.922424
v -6.921366 189.155350 -42.922424
v -2.871392 187.266815 -42.922424
vt 0.308658 0.038060
vt 0.038060 0.691342
vt 0.961940 0.308658
vt 1.000000 0.000000
vt 0.000000 1.000000
vt 0.000000 0.000000
vt 1.000000 0.000000
vt 0.000000 1.000000
vt 0.000000 0.000000
vt 1.000000 0.000000
vt 0.000000 1.000000
vt 0.000000 0.000000
vt 1.000000 0.000000
vt 0.000000 1.000000
vt 0.000000 0.000000
vt 1.000000 0.000000
vt 0.000000 1.000000
vt 0.000000 0.000000
vt 1.000000 0.000000
vt 0.000000 1.000000
vt 0.000000 0.000000
vt 1.000000 0.000000
vt 0.000000 1.000000
vt 0.000000 0.000000
vt 1.000000 0.000000
vt 0.000000 1.000000
vt 0.000000 0.000000
vt 1.000000 0.000000
vt 0.000000 1.000000
vt 0.000000 0.000000
vt 1.000000 0.000000
vt 0.000000 1.000000
vt 0.000000 0.000000
vt 1.000000 0.000000
vt 0.000000 1.000000
vt 0.000000 0.000000
vt 1.000000 0.000000
vt 0.000000 1.000000
vt 0.000000 0.000000
vt 1.000000 0.000000
vt 0.000000 1.000000
vt 0.000000 0.000000
vt 1.000000 0.000000
vt 0.000000 1.000000
vt 0.000000 0.000000
vt 1.000000 0.000000
vt 0.000000 1.000000
vt 0.000000 0.000000
vt 1.000000 0.000000
vt 0.000000 1.000000
vt 0.000000 0.000000
vt 0.146447 0.146446
vt 0.146447 0.853554
vt 0.853553 0.853553
vt 0.308659 0.961940
vt 0.500000 1.000000
vt 0.691342 0.961940
vt 0.853553 0.853553
vt 0.961940 0.691342
vt 1.000000 0.500000
vt 0.853553 0.146447
vt 0.691342 0.038060
vt 0.500000 0.000000
vt 0.146447 0.146446
vt 0.038060 0.308658
vt 0.000000 0.500000
vt 0.146447 0.853554
vt 1.000000 1.000000
vt 1.000000 1.000000
vt 1.000000 1.000000
vt 1.000000 1.000000
vt 1.000000 1.000000
vt 1.000000 1.000000
vt 1.000000 1.000000
vt 1.000000 1.000000
vt 1.000000 1.000000
vt 1.000000 1.000000
vt 1.000000 1.000000
vt 1.000000 1.000000
vt 1.000000 1.000000
vt 1.000000 1.000000
vt 1.000000 1.000000
vt 1.000000 1.000000
vt 0.308659 0.961940
vt 0.500000 1.000000
vt 0.691342 0.961940
vt 0.961940 0.691342
vt 1.000000 0.500000
vt 0.961940 0.308658
vt 0.853553 0.146447
vt 0.691342 0.038060
vt 0.500000 0.000000
vt 0.308658 0.038060
vt 0.038060 0.308658
vt 0.000000 0.500000
vt 0.038060 0.691342
vn -0.2550 0.7004 -0.6666
vn 0.7447 -0.0325 -0.6666
vn -0.5496 -0.5036 -0.6666
vn 0.8557 -0.0732 -0.5123
vn 0.5647 -0.4673 0.6802
vn 0.5022 -0.5521 -0.6656
vn 0.8164 0.2631 -0.5141
vn 0.7015 -0.2133 0.6800
vn 0.6768 -0.3156 -0.6651
vn 0.2631 -0.8164 -0.5140
vn -0.2133 -0.7015 0.6800
vn -0.3156 -0.6768 -0.6651
vn -0.0732 -0.8557 -0.5123
vn -0.4673 -0.5647 0.6802
vn -0.5521 -0.5021 -0.6656
vn -0.8557 0.0732 -0.5123
vn -0.5647 0.4673 0.6802
vn -0.5022 0.5521 -0.6656
vn -0.8164 -0.2631 -0.5141
vn -0.7015 0.2133 0.6800
vn -0.6768 0.3156 -0.6651
vn -0.2631 0.8164 -0.5141
vn 0.2133 0.7015 0.6800
vn 0.3156 0.6768 -0.6651
vn 0.0732 0.8557 -0.5123
vn 0.4673 0.5647 0.6802
vn 0.5521 0.5021 -0.6656
vn 0.7590 -0.3978 -0.5155
vn 0.3486 -0.6442 0.6808
vn 0.2550 -0.7005 -0.6666
vn -0.3978 -0.7590 -0.5155
vn -0.6442 -0.3486 0.6808
vn -0.7005 -0.2549 -0.6666
vn -0.7590 0.3978 -0.5155
vn -0.3486 0.6442 0.6808
vn -0.2549 0.7004 -0.6666
vn 0.3978 0.7590 -0.5155
vn 0.6442 0.3486 0.6808
vn 0.7004 0.2549 -0.6666
vn 0.5510 -0.6536 -0.5189
vn 0.0779 -0.7287 0.6804
vn -0.0297 -0.7457 -0.6656
vn -0.6536 -0.5510 -0.5189
vn -0.7287 -0.0779 0.6804
vn -0.7457 0.0297 -0.6656
vn -0.5510 0.6535 -0.5189
vn -0.0779 0.7286 0.6805
vn 0.0297 0.7457 -0.6656
vn 0.6535 0.5510 -0.5189
vn 0.7286 0.0779 0.6805
vn 0.7457 -0.0297 -0.6656
vn -0.7447 0.0326 0.6666
vn 0.2549 -0.7005 0.6666
vn 0.5495 0.5036 0.6666
vn 0.4994 0.5552 -0.6651
vn 0.5021 -0.5522 -0.6656
vn -0.5974 -0.4459 -0.6666
vn 0.7442 0.0423 -0.6666
vn -0.7395 0.1042 -0.6651
vn 0.5552 -0.4994 -0.6651
vn -0.5521 -0.5022 -0.6656
vn -0.4459 0.5974 -0.6666
vn 0.0423 -0.7442 -0.6666
vn 0.1042 0.7394 -0.6651
vn -0.4994 -0.5552 -0.6651
vn -0.5021 0.5522 -0.6656
vn 0.5973 0.4459 -0.6666
vn -0.7442 -0.0425 -0.6666
vn 0.0298 0.7457 -0.6656
vn 0.7394 -0.1042 -0.6651
vn -0.5552 0.4994 -0.6651
vn 0.5521 0.5022 -0.6656
vn 0.4460 -0.5973 -0.6666
vn -0.0425 0.7442 -0.6666
vn 0.7457 -0.0298 -0.6656
vn -0.1042 -0.7394 -0.6651
vn 0.6768 -0.3155 -0.6651
vn -0.4409 -0.6010 -0.6666
vn 0.1770 0.7241 -0.6666
vn -0.6010 0.4409 -0.6666
vn 0.7241 -0.1771 -0.6666
vn -0.6768 0.3155 -0.6651
vn 0.4408 0.6011 -0.6666
vn -0.1771 -0.7241 -0.6666
vn 0.3155 0.6768 -0.6651
vn 0.6011 -0.4408 -0.6666
vn -0.7241 0.1770 -0.6666
vn 0.2549 -0.7005 -0.6666
vn -0.7447 0.0326 -0.6666
vn 0.5495 0.5036 -0.6666
vn 0.6143 -0.4002 -0.6800
vn 0.6768 -0.3156 0.6651
vn 0.3232 -0.7945 0.5141
vn 0.7210 -0.1322 -0.6802
vn 0.7457 -0.0298 0.6656
vn 0.6061 -0.6085 0.5123
vn -0.1322 -0.7210 -0.6802
vn -0.0298 -0.7457 0.6656
vn -0.6084 -0.6061 0.5123
vn -0.4002 -0.6143 -0.6800
vn -0.3156 -0.6768 0.6651
vn -0.7945 -0.3232 0.5141
vn -0.6143 0.4002 -0.6800
vn -0.6768 0.3156 0.6651
vn -0.3232 0.7945 0.5141
vn -0.7210 0.1322 -0.6802
vn -0.7457 0.0298 0.6656
vn -0.6061 0.6085 0.5123
vn 0.1322 0.7210 -0.6802
vn 0.0298 0.7457 0.6656
vn 0.6084 0.6061 0.5123
vn 0.4002 0.6143 -0.6800
vn 0.3156 0.6768 0.6651
vn 0.7945 0.3232 0.5141
vn 0.4087 -0.6083 -0.6804
vn 0.5021 -0.5522 0.6656
vn -0.0020 -0.8548 0.5189
vn -0.6083 -0.4087 -0.6804
vn -0.5521 -0.5021 0.6656
vn -0.8548 0.0020 0.5189
vn -0.4087 0.6083 -0.6804
vn -0.5021 0.5522 0.6656
vn 0.0020 0.8548 0.5189
vn 0.6083 0.4087 -0.6804
vn 0.5521 0.5021 0.6656
vn 0.8548 -0.0020 0.5189
vn 0.1470 -0.7176 -0.6808
vn 0.2550 -0.7005 0.6666
vn -0.3257 -0.7926 0.5155
vn -0.7176 -0.1470 -0.6808
vn -0.7005 -0.2550 0.6666
vn -0.7926 0.3257 0.5155
vn -0.1470 0.7175 -0.6808
vn -0.2550 0.7004 0.6666
vn 0.3257 0.7926 0.5155
vn 0.7175 0.1470 -0.6808
vn 0.7004 0.2550 0.6666
vn 0.7926 -0.3257 0.5155
vn 0.4994 0.5552 0.6651
vn -0.5974 -0.4459 0.6666
vn -0.0425 0.7442 0.6666
vn -0.1042 -0.7394 0.6651
vn 0.5521 0.5022 0.6656
vn -0.5552 0.4994 0.6651
vn 0.4459 -0.5973 0.6666
vn -0.7442 -0.0425 0.6666
vn 0.7394 -0.1042 0.6651
vn -0.4994 -0.5552 0.6651
vn 0.5973 0.4459 0.6666
vn -0.7457 0.0297 0.6656
vn 0.0423 -0.7442 0.6666
vn 0.1042 0.7394 0.6651
vn -0.5521 -0.5022 0.6656
vn 0.5552 -0.4994 0.6651
vn -0.4459 0.5974 0.6666
vn -0.0297 -0.7457 0.6656
vn 0.7442 0.0423 0.6666
vn -0.7394 0.1042 0.6651
vn 0.6768 -0.3155 0.6651
vn 0.1770 0.7241 0.6666
vn -0.4409 -0.6010 0.6666
vn 0.3155 0.6768 0.6651
vn -0.7241 0.1770 0.6666
vn 0.6011 -0.4408 0.6666
vn -0.6768 0.3155 0.6651
vn -0.1771 -0.7241 0.6666
vn 0.4408 0.6011 0.6666
vn -0.3155 -0.6768 0.6651
vn 0.7241 -0.1771 0.6666
vn -0.6010 0.4409 0.6666
vn 0.7447 -0.0325 0.6666
vn -0.5496 -0.5036 0.6666
usemtl wire_228184153.001
s off
f 10/1/1 14/2/2 6/3/3
f 16/4/4 18/5/5 1/6/6
f 15/7/7 17/8/8 16/9/9
f 3/10/10 21/11/11 4/12/12
f 4/13/13 22/14/14 5/15/15
f 8/16/16 24/17/17 9/18/18
f 7/19/19 23/20/20 8/21/21
f 11/22/22 27/23/23 12/24/24
f 12/25/25 28/26/26 13/27/27
f 1/28/28 29/29/29 2/30/30
f 5/31/31 30/32/32 6/33/33
f 9/34/34 31/35/35 10/36/36
f 13/37/37 32/38/38 14/39/39
f 2/40/40 20/41/41 3/42/42
f 6/43/43 25/44/44 7/45/45
f 10/46/46 26/47/47 11/48/48
f 14/49/49 19/50/50 15/51/51
f 30/52/52 29/53/53 32/54/54
f 16/55/55 1/56/56 2/57/57
f 2/57/58 3/58/42 4/59/59
f 4/59/60 5/60/61 6/3/62
f 6/3/63 7/61/45 8/62/64
f 8/62/65 9/63/66 10/1/67
f 10/1/68 11/64/69 12/65/70
f 12/65/71 13/66/72 14/2/73
f 14/2/74 15/67/75 16/55/76
f 16/55/77 2/57/78 14/2/79
f 4/59/12 6/3/80 2/57/81
f 8/62/82 10/1/83 6/3/84
f 12/65/85 14/2/86 10/1/87
f 2/57/88 6/3/89 14/2/90
f 16/4/91 17/68/92 18/5/93
f 15/7/94 19/69/95 17/8/96
f 3/10/97 20/70/98 21/11/99
f 4/13/100 21/71/101 22/14/102
f 8/16/103 23/72/104 24/17/105
f 7/19/106 25/73/107 23/20/108
f 11/22/109 26/74/110 27/23/111
f 12/25/112 27/75/113 28/26/114
f 1/28/115 18/76/116 29/29/117
f 5/31/118 22/77/119 30/32/120
f 9/34/121 24/78/122 31/35/123
f 13/37/124 28/79/125 32/38/126
f 2/40/127 29/80/128 20/41/129
f 6/43/130 30/81/131 25/44/132
f 10/46/133 31/82/134 26/47/135
f 14/49/136 32/83/137 19/50/138
f 18/84/116 17/85/139 29/53/140
f 19/86/95 32/54/141 17/85/142
f 28/87/143 27/88/144 32/54/145
f 26/89/110 31/90/146 27/88/147
f 24/91/122 23/92/148 31/90/149
f 25/93/150 30/52/151 23/92/152
f 22/94/153 21/95/154 30/52/155
f 20/96/156 29/53/157 21/95/158
f 17/85/159 32/54/160 29/53/161
f 27/88/162 31/90/163 32/54/164
f 23/92/165 30/52/166 31/90/167
f 21/95/168 29/53/169 30/52/170
f 32/54/171 31/90/134 30/52/172
