# Blender v2.79 (sub 0) OBJ File: 'theshamancave.blend'
# www.blender.org
mtllib Plane001.010.mtl
o Plane001.010
v 25.911240 -174.070099 0.000000
v 25.911240 -137.627411 0.000000
v 47.035320 -137.627411 0.000000
v 47.035320 -174.070099 0.000000
v 68.159401 -137.627411 0.000000
v 68.159401 -174.070099 0.000000
v 89.283485 -137.627411 0.000000
v 89.283485 -174.070099 0.000000
v 110.407562 -137.627411 0.000000
v 110.407562 -174.070099 0.000000
v 25.911240 -210.512772 0.000000
v 47.035320 -210.512772 0.000000
v 68.159401 -210.512772 0.000000
v 89.283485 -210.512772 0.000000
v 110.407562 -210.512772 0.000000
v 25.911240 -246.955444 0.000000
v 47.035320 -246.955444 0.000000
v 68.159401 -246.955444 0.000000
v 89.283485 -246.955444 0.000000
v 110.407562 -246.955444 0.000000
v 25.911240 -283.398132 0.000000
v 47.035320 -283.398132 0.000000
v 68.159401 -283.398132 0.000000
v 89.283485 -283.398132 0.000000
v 110.407562 -283.398132 0.000000
vt 0.000000 0.000000
vt 0.250000 0.250000
vt 0.000000 0.250000
vt 0.250000 0.000000
vt 0.500000 0.250000
vt 0.500000 0.000000
vt 0.750000 0.250000
vt 0.750000 0.000000
vt 1.000000 0.250000
vt 0.250000 0.500000
vt 0.000000 0.500000
vt 0.500000 0.500000
vt 0.750000 0.500000
vt 1.000000 0.500000
vt 0.250000 0.750000
vt 0.000000 0.750000
vt 0.500000 0.750000
vt 0.750000 0.750000
vt 1.000000 0.750000
vt 0.250000 1.000000
vt 0.000000 1.000000
vt 0.500000 1.000000
vt 0.750000 1.000000
vt 1.000000 1.000000
vt 1.000000 0.000000
vn 0.0000 0.0000 -1.0000
usemtl wire_028089177.007
s 1
f 2/1/1 4/2/1 1/3/1
f 3/4/1 6/5/1 4/2/1
f 5/6/1 8/7/1 6/5/1
f 7/8/1 10/9/1 8/7/1
f 1/3/1 12/10/1 11/11/1
f 4/2/1 13/12/1 12/10/1
f 6/5/1 14/13/1 13/12/1
f 8/7/1 15/14/1 14/13/1
f 11/11/1 17/15/1 16/16/1
f 12/10/1 18/17/1 17/15/1
f 13/12/1 19/18/1 18/17/1
f 14/13/1 20/19/1 19/18/1
f 16/16/1 22/20/1 21/21/1
f 17/15/1 23/22/1 22/20/1
f 18/17/1 24/23/1 23/22/1
f 19/18/1 25/24/1 24/23/1
f 2/1/1 3/4/1 4/2/1
f 3/4/1 5/6/1 6/5/1
f 5/6/1 7/8/1 8/7/1
f 7/8/1 9/25/1 10/9/1
f 1/3/1 4/2/1 12/10/1
f 4/2/1 6/5/1 13/12/1
f 6/5/1 8/7/1 14/13/1
f 8/7/1 10/9/1 15/14/1
f 11/11/1 12/10/1 17/15/1
f 12/10/1 13/12/1 18/17/1
f 13/12/1 14/13/1 19/18/1
f 14/13/1 15/14/1 20/19/1
f 16/16/1 17/15/1 22/20/1
f 17/15/1 18/17/1 23/22/1
f 18/17/1 19/18/1 24/23/1
f 19/18/1 20/19/1 25/24/1
