# Blender v2.79 (sub 0) OBJ File: 'theshamancave.blend'
# www.blender.org
mtllib Rectangle008.005.mtl
o Rectangle008.005
v -11.658422 186.640564 -43.318165
v -11.658422 184.590530 -43.318165
v -14.681911 184.590530 -43.318165
v -14.681911 183.592499 -43.318165
v -17.737148 183.592499 -43.318165
v -17.737146 187.638596 -43.318165
v -14.681909 187.638596 -43.318165
v -14.681911 186.640564 -43.318165
v -14.681913 186.640564 -43.245090
v -11.658422 186.640549 -43.245090
v -11.658422 187.019150 -43.245090
v -14.328650 187.019150 -43.245090
v -17.737146 187.638596 -42.872108
v -14.681909 187.638596 -42.872108
v -14.681911 186.640564 -42.872108
v -11.658422 186.640564 -42.872108
v -17.737148 183.592499 -42.872108
v -14.681911 183.592499 -42.872108
v -14.681911 184.590530 -42.872108
v -11.658422 184.590530 -42.872108
v -14.328655 188.017197 -43.245090
v -14.681913 187.638596 -43.245090
v -18.089489 188.017197 -43.245090
v -17.737148 187.638596 -43.245090
v -14.681915 184.590530 -43.245090
v -14.328657 184.211914 -43.245090
v -11.658422 184.211914 -43.245090
v -11.658422 184.590530 -43.245090
v -14.681932 183.592499 -43.245090
v -14.328664 183.213882 -43.245090
v -17.737169 183.592499 -43.245090
v -18.089491 183.213882 -43.245090
v -14.328650 187.019150 -45.907585
v -14.328655 188.017197 -45.907585
v -18.089489 188.017197 -45.907585
v -11.658422 187.019150 -45.907585
v -18.089491 183.213882 -45.907585
v -14.328664 183.213882 -45.907585
v -14.328657 184.211914 -45.907585
v -11.658422 184.211914 -45.907585
v -11.658422 184.590530 -45.907585
v -14.681915 184.590530 -45.907585
v -14.681932 183.592499 -45.907585
v -17.737169 183.592499 -45.907585
v -17.737148 187.638596 -45.907585
v -14.681913 187.638596 -45.907585
v -14.681913 186.640564 -45.907585
v -11.658422 186.640549 -45.907585
vt 1.000000 0.000000
vt 0.000000 1.000000
vt 0.000000 0.000000
vt 1.000000 0.000000
vt 0.000000 1.000000
vt 0.000000 0.000000
vt 1.000000 0.000000
vt 0.000000 1.000000
vt 0.000000 0.000000
vt 1.000000 0.000000
vt 0.000000 1.000000
vt 0.000000 0.000000
vt 1.000000 0.000000
vt 0.000000 1.000000
vt 0.000000 0.000000
vt 1.000000 0.000000
vt 0.000000 1.000000
vt 0.000000 0.000000
vt 1.000000 0.000000
vt 0.000000 1.000000
vt 0.000000 0.000000
vt 1.000000 0.000000
vt 0.000000 1.000000
vt 0.000000 0.000000
vt 1.000000 0.000000
vt 0.000000 1.000000
vt 0.000000 0.000000
vt 1.000000 0.000000
vt 0.000000 1.000000
vt 0.000000 0.000000
vt 1.000000 0.000000
vt 0.000000 1.000000
vt 0.000000 0.000000
vt 1.000000 0.000000
vt 0.000000 1.000000
vt 0.000000 0.000000
vt 1.000000 0.000000
vt 0.000000 1.000000
vt 0.000000 0.000000
vt 1.000000 0.000000
vt 0.000000 1.000000
vt 0.000000 0.000000
vt 1.000000 0.000000
vt 0.000000 1.000000
vt 0.000000 0.000000
vt 1.000000 0.000000
vt 0.000000 1.000000
vt 0.000000 0.000000
vt 1.000000 0.000000
vt 0.000000 1.000000
vt 0.000000 0.000000
vt 1.000000 0.000000
vt 0.000000 1.000000
vt 0.000000 0.000000
vt 1.000000 0.000000
vt 0.000000 1.000000
vt 0.000000 0.000000
vt 1.000000 0.000000
vt 0.000000 1.000000
vt 0.000000 0.000000
vt 1.000000 0.000000
vt 0.000000 1.000000
vt 0.000000 0.000000
vt 0.853553 0.853553
vt 0.853553 0.146447
vt 0.000000 0.500000
vt 1.000000 1.000000
vt 1.000000 1.000000
vt 1.000000 1.000000
vt 1.000000 1.000000
vt 1.000000 1.000000
vt 1.000000 1.000000
vt 1.000000 1.000000
vt 1.000000 1.000000
vt 1.000000 1.000000
vt 1.000000 1.000000
vt 1.000000 1.000000
vt 1.000000 1.000000
vt 1.000000 1.000000
vt 1.000000 1.000000
vt 1.000000 1.000000
vt 1.000000 1.000000
vt 1.000000 1.000000
vt 1.000000 1.000000
vt 1.000000 1.000000
vt 1.000000 1.000000
vt 1.000000 1.000000
vt 0.146447 0.853553
vt 0.500000 1.000000
vt 1.000000 0.500000
vt 0.500000 0.000000
vt 0.146447 0.146447
vt 1.000000 0.500000
vt 0.146447 0.146447
vt 0.146447 0.853553
vt 1.000000 0.000000
vt 1.000000 0.000000
vt 1.000000 1.000000
vt 1.000000 0.000000
vt 0.000000 1.000000
vt 1.000000 1.000000
vt 1.000000 0.000000
vt 1.000000 0.000000
vt 0.000000 1.000000
vt 0.000000 0.000000
vt 0.000000 1.000000
vt 0.000000 0.000000
vt 0.000000 1.000000
vt 0.000000 0.000000
vt 0.500000 1.000000
vt 0.853553 0.853553
vt 0.853553 0.146447
vt 0.500000 0.000000
vt 0.000000 0.500000
vt 1.000000 1.000000
vt 1.000000 1.000000
vt 1.000000 0.000000
vt 1.000000 1.000000
vt 1.000000 0.000000
vt 1.000000 1.000000
vt 1.000000 1.000000
vt 0.000000 0.000000
vt 0.000000 1.000000
vt 0.000000 0.000000
vt 0.000000 1.000000
vt 0.000000 0.000000
vt 0.000000 1.000000
vt 0.000000 1.000000
vt 0.000000 0.000000
vn -0.5340 0.5774 0.6177
vn 0.8144 0.5774 -0.0591
vn -0.5774 0.5774 -0.5773
vn 0.5774 0.4443 0.6851
vn 0.5774 0.7985 0.1703
vn 0.5774 0.5774 -0.5773
vn 0.5336 0.5774 -0.6180
vn 0.3232 0.7071 -0.6289
vn 0.5774 0.5774 0.5773
vn -0.5774 -0.5448 0.6081
vn -0.5774 0.8153 -0.0447
vn -0.5774 -0.5774 -0.5773
vn 0.5340 -0.5774 0.6177
vn -0.8144 -0.5774 -0.0591
vn 0.5774 -0.5774 -0.5773
vn 0.5774 -0.4442 -0.6851
vn 0.5774 -0.7985 -0.1703
vn 0.5774 -0.5774 0.5773
vn -0.0690 -0.7071 0.7037
vn 0.8143 -0.5774 0.0597
vn -0.0002 -0.7071 -0.7071
vn 0.3015 0.8930 -0.3342
vn 0.5773 0.6710 0.4652
vn 0.3015 0.3015 0.9045
vn 0.3751 0.5774 -0.7252
vn -0.7780 0.5774 0.2476
vn 0.5773 0.5774 0.5774
vn -0.3530 0.7071 -0.6127
vn 0.1077 0.3015 0.9474
vn -0.0002 0.7071 0.7071
vn -0.5774 0.4143 -0.7035
vn -0.5774 -0.7905 0.2044
vn -0.5774 0.5773 0.5774
vn -0.3751 -0.5774 -0.7252
vn 0.7780 -0.5774 0.2476
vn -0.5774 -0.5774 0.5773
vn 0.5774 -0.1456 -0.8034
vn 0.3015 -0.2143 0.9291
vn 0.5773 -0.5773 0.5774
vn 0.7456 -0.3015 -0.5942
vn 0.1833 -0.7071 0.6829
vn 0.3015 -0.3015 0.9045
vn -0.3274 0.7071 -0.6267
vn -0.7638 0.5774 0.2885
vn 0.0003 0.7071 0.7071
vn -0.5773 0.1456 -0.8034
vn -0.3015 0.2143 0.9291
vn -0.5773 0.5773 0.5774
vn -0.7154 0.3015 -0.6303
vn 0.0908 0.3015 0.9491
vn -0.3015 0.3015 0.9045
vn 0.3015 0.6496 -0.6980
vn 0.3015 -0.0569 0.9518
vn 0.7154 -0.3015 -0.6303
vn -0.0908 -0.3015 0.9491
vn -0.3015 -0.8930 -0.3342
vn -0.5774 -0.6710 0.4652
vn -0.3015 -0.3015 0.9045
vn -0.3362 -0.5773 -0.7441
vn 0.1974 -0.7071 0.6790
vn -0.5773 -0.5773 0.5774
vn -0.6961 -0.4267 0.5773
vn 0.6609 -0.4794 -0.5774
vn 0.3128 0.7542 -0.5774
vn -0.8143 0.5774 0.0592
vn 0.5341 0.5774 -0.6176
vn 0.5774 0.4442 0.6851
vn 0.8143 0.5774 -0.0597
vn -0.0690 0.7071 -0.7037
vn -0.5774 -0.8153 0.0447
vn -0.5774 0.5774 0.5773
vn -0.5774 0.5448 -0.6081
vn 0.8143 -0.5774 0.0592
vn -0.5341 -0.5774 -0.6176
vn 0.5774 -0.4443 -0.6851
vn 0.3232 -0.7071 0.6289
vn 0.5335 -0.5774 0.6181
vn 0.3015 0.2143 -0.9291
vn 0.5773 0.5773 -0.5774
vn 0.5774 0.1456 0.8034
vn 0.7780 0.5774 -0.2476
vn -0.3751 0.5774 0.7252
vn 0.1833 0.7071 -0.6829
vn 0.3015 0.3015 -0.9045
vn 0.7456 0.3015 0.5942
vn -0.5773 0.7905 -0.2045
vn -0.5774 -0.4145 0.7035
vn -0.7780 -0.5774 -0.2476
vn 0.5773 -0.5774 -0.5774
vn 0.3751 -0.5774 0.7252
vn 0.5773 -0.6710 -0.4652
vn 0.3015 -0.3015 -0.9045
vn 0.3015 -0.8930 0.3342
vn 0.1077 -0.3015 -0.9474
vn -0.3530 -0.7071 0.6127
vn 0.1974 0.7071 -0.6790
vn -0.5773 0.5774 -0.5774
vn -0.3362 0.5774 0.7441
vn -0.5773 0.6710 -0.4652
vn -0.3015 0.3015 -0.9045
vn -0.3015 0.8930 0.3342
vn -0.0908 0.3015 -0.9491
vn 0.7154 0.3015 0.6303
vn 0.3015 0.0569 -0.9518
vn 0.3015 -0.6496 0.6980
vn 0.0908 -0.3015 -0.9491
vn -0.3015 -0.3015 -0.9045
vn -0.7154 -0.3015 0.6303
vn -0.3015 -0.2143 -0.9291
vn -0.5774 -0.5773 -0.5774
vn -0.5774 -0.1456 0.8034
vn -0.7638 -0.5773 -0.2885
vn 0.0003 -0.7071 -0.7071
vn -0.3274 -0.7071 0.6267
vn -0.8063 0.1284 0.5774
vn 0.4794 -0.6609 -0.5774
vn -0.8064 -0.1283 0.5774
vn 0.5773 -0.5774 0.5774
vn 0.4794 0.6609 -0.5774
vn -0.7805 -0.2396 -0.5774
vn -0.0002 -0.7071 0.7071
vn -0.2736 0.6521 0.7071
vn 0.7942 0.1896 -0.5774
vn -0.4794 0.6610 0.5774
vn -0.3130 -0.7541 0.5774
vn -0.3825 -0.7213 -0.5774
vn 0.2257 0.6701 0.7071
vn -0.5774 0.5773 -0.5774
vn 0.5773 0.5773 0.5774
vn -0.5774 -0.5773 0.5773
vn -0.5773 0.5774 0.5773
vn -0.0000 0.7071 0.7071
vn -0.5774 -0.5773 0.5774
vn -0.5773 -0.5774 -0.5774
vn 0.5774 0.5773 -0.5773
vn 0.0003 0.7071 -0.7071
vn -0.0000 -0.7071 -0.7071
vn -0.0002 0.7071 -0.7071
vn 0.5773 0.5774 -0.5774
vn 0.5773 0.5774 0.5773
vn 0.5773 -0.5774 0.5773
vn 0.5774 0.5773 -0.5774
vn 0.5774 -0.5773 -0.5774
usemtl wire_027177088.009
s off
f 13/1/1 7/2/2 6/3/3
f 14/4/4 8/5/5 7/6/6
f 15/7/7 1/8/8 8/9/9
f 17/10/10 6/11/11 5/12/12
f 18/13/13 5/14/14 4/15/15
f 19/16/16 4/17/17 3/18/18
f 20/19/19 3/20/20 2/21/21
f 33/22/22 21/23/23 12/24/24
f 34/25/25 23/26/26 21/27/27
f 36/28/28 12/29/29 11/30/30
f 35/31/31 32/32/32 23/33/33
f 37/34/34 30/35/35 32/36/36
f 38/37/37 26/38/38 30/39/39
f 39/40/40 27/41/41 26/42/42
f 41/43/43 25/44/44 28/45/45
f 42/46/46 29/47/47 25/48/48
f 43/49/49 31/50/50 29/51/51
f 44/52/52 24/53/53 31/54/24
f 45/55/54 22/56/55 24/57/42
f 46/58/56 9/59/57 22/60/58
f 47/61/59 10/62/60 9/63/61
f 17/64/62 19/65/63 15/66/64
f 13/1/65 14/67/9 7/2/66
f 14/4/5 15/68/6 8/5/67
f 15/7/68 16/69/30 1/8/69
f 17/10/70 13/70/71 6/11/72
f 18/13/73 17/71/36 5/14/74
f 19/16/17 18/72/18 4/17/75
f 20/19/76 19/73/15 3/20/77
f 33/22/78 34/74/79 21/23/80
f 34/25/81 35/75/3 23/26/82
f 36/28/83 33/76/84 12/29/85
f 35/31/86 37/77/12 32/32/87
f 37/34/88 38/78/89 30/35/90
f 38/37/91 39/79/92 26/38/93
f 39/40/94 40/80/21 27/41/95
f 41/43/96 42/81/97 25/44/98
f 42/46/99 43/82/100 29/47/101
f 43/49/102 44/83/84 31/50/103
f 44/52/104 45/84/92 24/53/105
f 45/55/106 46/85/107 22/56/108
f 46/58/109 47/86/110 9/59/111
f 47/61/112 48/87/113 10/62/114
f 14/88/27 13/89/115 15/66/116
f 17/64/117 18/90/118 19/65/119
f 19/65/120 20/91/121 16/92/122
f 15/66/123 13/89/124 17/64/125
f 19/65/126 16/92/127 15/66/128
s 1
f 3/93/39 6/94/97 8/95/129
f 10/96/121 12/29/24 9/63/130
f 12/97/24 22/56/58 9/63/130
f 22/60/58 23/98/131 24/53/42
f 26/99/42 28/100/132 25/48/131
f 29/51/51 26/101/42 25/44/131
f 32/102/133 29/47/51 31/54/24
f 23/103/131 31/50/24 24/57/42
f 35/31/97 44/104/84 37/105/134
f 33/22/84 46/106/107 34/107/135
f 39/40/92 41/108/136 40/109/137
f 8/95/129 1/110/138 2/111/137
f 3/93/39 4/112/89 5/113/110
f 8/95/129 2/111/137 3/93/39
f 6/94/97 7/114/139 8/95/129
f 3/93/39 5/113/110 6/94/97
f 10/96/121 11/115/132 12/29/24
f 12/97/24 21/116/140 22/56/58
f 22/60/58 21/117/140 23/98/131
f 26/99/42 27/118/121 28/100/132
f 29/51/51 30/119/141 26/101/42
f 32/102/133 30/120/141 29/47/51
f 23/103/131 32/121/133 31/50/24
f 35/31/97 45/84/92 44/104/84
f 33/22/84 47/86/110 46/106/107
f 39/40/92 42/81/97 41/108/136
s 2
f 35/122/97 46/85/107 45/123/92
f 33/124/84 48/87/137 47/125/110
f 39/126/92 43/82/100 42/127/128
f 35/122/97 34/25/142 46/85/107
f 33/124/84 36/28/138 48/87/137
f 39/126/92 38/37/143 43/82/100
s 4
f 37/34/134 43/128/100 38/129/143
f 37/34/134 44/83/84 43/128/100
