# Blender v2.79 (sub 0) OBJ File: 'theshamancave.blend'
# www.blender.org
mtllib Rectangle002.mtl
o Rectangle002
v -6.324754 180.151718 -43.318165
v -4.274726 180.151718 -43.318165
v -4.274726 177.128220 -43.318165
v -3.276688 177.128220 -43.318165
v -3.276688 174.072983 -43.318165
v -7.322792 174.072983 -43.318165
v -7.322792 177.128220 -43.318165
v -6.324754 177.128220 -43.318165
v -6.324755 177.128220 -43.245090
v -6.324745 180.151718 -43.245090
v -6.703362 180.151718 -43.245090
v -6.703362 177.481476 -43.245090
v -7.322792 174.072983 -42.872108
v -7.322792 177.128220 -42.872108
v -6.324754 177.128220 -42.872108
v -6.324754 180.151718 -42.872108
v -3.276688 174.072983 -42.872108
v -3.276688 177.128220 -42.872108
v -4.274726 177.128220 -42.872108
v -4.274726 180.151718 -42.872108
v -7.701400 177.481476 -43.245090
v -7.322795 177.128220 -43.245090
v -7.701400 173.720642 -43.245090
v -7.322792 174.072983 -43.245090
v -4.274721 177.128220 -43.245090
v -3.896117 177.481476 -43.245090
v -3.896117 180.151718 -43.245090
v -4.274715 180.151718 -43.245090
v -3.276690 177.128204 -43.245090
v -2.898080 177.481461 -43.245090
v -3.276695 174.072968 -43.245090
v -2.898080 173.720642 -43.245090
v -6.703362 177.481476 -45.907585
v -7.701400 177.481476 -45.907585
v -7.701400 173.720642 -45.907585
v -6.703362 180.151718 -45.907585
v -2.898080 173.720642 -45.907585
v -2.898080 177.481461 -45.907585
v -3.896117 177.481476 -45.907585
v -3.896117 180.151718 -45.907585
v -4.274715 180.151718 -45.907585
v -4.274721 177.128220 -45.907585
v -3.276690 177.128204 -45.907585
v -3.276695 174.072968 -45.907585
v -7.322792 174.072983 -45.907585
v -7.322795 177.128220 -45.907585
v -6.324755 177.128220 -45.907585
v -6.324745 180.151718 -45.907585
vt 1.000000 0.000000
vt 0.000000 1.000000
vt 0.000000 0.000000
vt 1.000000 0.000000
vt 0.000000 1.000000
vt 0.000000 0.000000
vt 1.000000 0.000000
vt 0.000000 1.000000
vt 0.000000 0.000000
vt 1.000000 0.000000
vt 0.000000 1.000000
vt 0.000000 0.000000
vt 1.000000 0.000000
vt 0.000000 1.000000
vt 0.000000 0.000000
vt 1.000000 0.000000
vt 0.000000 1.000000
vt 0.000000 0.000000
vt 1.000000 0.000000
vt 0.000000 1.000000
vt 0.000000 0.000000
vt 1.000000 0.000000
vt 0.000000 1.000000
vt 0.000000 0.000000
vt 1.000000 0.000000
vt 0.000000 1.000000
vt 0.000000 0.000000
vt 1.000000 0.000000
vt 0.000000 1.000000
vt 0.000000 0.000000
vt 1.000000 0.000000
vt 0.000000 1.000000
vt 0.000000 0.000000
vt 1.000000 0.000000
vt 0.000000 1.000000
vt 0.000000 0.000000
vt 1.000000 0.000000
vt 0.000000 1.000000
vt 0.000000 0.000000
vt 1.000000 0.000000
vt 0.000000 1.000000
vt 0.000000 0.000000
vt 1.000000 0.000000
vt 0.000000 1.000000
vt 0.000000 0.000000
vt 1.000000 0.000000
vt 0.000000 1.000000
vt 0.000000 0.000000
vt 1.000000 0.000000
vt 0.000000 1.000000
vt 0.000000 0.000000
vt 1.000000 0.000000
vt 0.000000 1.000000
vt 0.000000 0.000000
vt 1.000000 0.000000
vt 0.000000 1.000000
vt 0.000000 0.000000
vt 1.000000 0.000000
vt 0.000000 1.000000
vt 0.000000 0.000000
vt 1.000000 0.000000
vt 0.000000 1.000000
vt 0.000000 0.000000
vt 0.853553 0.853553
vt 0.853553 0.146447
vt 0.000000 0.500000
vt 1.000000 1.000000
vt 1.000000 1.000000
vt 1.000000 1.000000
vt 1.000000 1.000000
vt 1.000000 1.000000
vt 1.000000 1.000000
vt 1.000000 1.000000
vt 1.000000 1.000000
vt 1.000000 1.000000
vt 1.000000 1.000000
vt 1.000000 1.000000
vt 1.000000 1.000000
vt 1.000000 1.000000
vt 1.000000 1.000000
vt 1.000000 1.000000
vt 1.000000 1.000000
vt 1.000000 1.000000
vt 1.000000 1.000000
vt 1.000000 1.000000
vt 1.000000 1.000000
vt 1.000000 1.000000
vt 0.146447 0.853553
vt 0.500000 1.000000
vt 1.000000 0.500000
vt 0.500000 0.000000
vt 0.146447 0.146447
vt 1.000000 0.500000
vt 0.146447 0.146447
vt 0.146447 0.853553
vt 1.000000 0.000000
vt 1.000000 0.000000
vt 1.000000 1.000000
vt 1.000000 0.000000
vt 0.000000 1.000000
vt 1.000000 1.000000
vt 1.000000 0.000000
vt 1.000000 0.000000
vt 0.000000 1.000000
vt 0.000000 0.000000
vt 0.000000 1.000000
vt 0.000000 0.000000
vt 0.000000 1.000000
vt 0.000000 0.000000
vt 0.500000 1.000000
vt 0.853553 0.853553
vt 0.853553 0.146447
vt 0.500000 0.000000
vt 0.000000 0.500000
vt 1.000000 1.000000
vt 1.000000 1.000000
vt 1.000000 0.000000
vt 1.000000 1.000000
vt 1.000000 0.000000
vt 1.000000 1.000000
vt 1.000000 1.000000
vt 0.000000 0.000000
vt 0.000000 1.000000
vt 0.000000 0.000000
vt 0.000000 1.000000
vt 0.000000 0.000000
vt 0.000000 1.000000
vt 0.000000 1.000000
vt 0.000000 0.000000
vn -0.5774 -0.5340 0.6177
vn -0.5774 0.8143 -0.0592
vn -0.5774 -0.5774 -0.5773
vn -0.4442 0.5774 0.6851
vn -0.7985 0.5774 0.1703
vn -0.5774 0.5774 -0.5773
vn -0.5774 0.5335 -0.6181
vn -0.7071 0.3232 -0.6289
vn -0.5774 0.5774 0.5773
vn 0.5448 -0.5774 0.6082
vn -0.8153 -0.5774 -0.0449
vn 0.5774 -0.5774 -0.5773
vn 0.5774 0.5340 0.6177
vn 0.5774 -0.8143 -0.0592
vn 0.5774 0.5774 -0.5773
vn 0.4442 0.5774 -0.6851
vn 0.7985 0.5774 -0.1704
vn 0.5774 0.5774 0.5773
vn 0.7071 -0.0690 0.7037
vn 0.5774 0.8143 0.0597
vn 0.7071 -0.0002 -0.7071
vn -0.8930 0.3015 -0.3342
vn -0.6711 0.5774 0.4651
vn -0.3015 0.3015 0.9045
vn -0.5774 0.3751 -0.7252
vn -0.5774 -0.7780 0.2476
vn -0.5774 0.5773 0.5774
vn -0.7071 -0.3530 -0.6127
vn -0.3015 0.1077 0.9474
vn -0.7071 -0.0002 0.7071
vn -0.4143 -0.5774 -0.7035
vn 0.7905 -0.5774 0.2045
vn -0.5774 -0.5774 0.5773
vn 0.5774 -0.3751 -0.7252
vn 0.5774 0.7780 0.2476
vn 0.5774 -0.5774 0.5773
vn 0.1456 0.5773 -0.8034
vn 0.2143 0.3015 0.9291
vn 0.5773 0.5773 0.5774
vn 0.3015 0.7456 -0.5942
vn 0.7071 0.1833 0.6830
vn 0.3015 0.3015 0.9045
vn -0.7071 -0.3274 -0.6267
vn -0.5774 -0.7638 0.2885
vn -0.1457 -0.5773 -0.8034
vn -0.2143 -0.3015 0.9291
vn -0.5774 -0.5773 0.5773
vn -0.3015 -0.7154 -0.6303
vn -0.3015 0.0908 0.9491
vn -0.3015 -0.3015 0.9045
vn -0.6496 0.3015 -0.6980
vn 0.0569 0.3015 0.9518
vn 0.3015 0.7154 -0.6303
vn 0.3015 -0.0908 0.9491
vn 0.8930 -0.3015 -0.3342
vn 0.6710 -0.5774 0.4652
vn 0.3015 -0.3015 0.9045
vn 0.5773 -0.3362 -0.7441
vn 0.7071 0.1974 0.6790
vn 0.5773 -0.5773 0.5774
vn 0.4268 -0.6961 0.5774
vn 0.4794 0.6609 -0.5774
vn -0.7542 0.3128 -0.5774
vn -0.5774 -0.8143 0.0592
vn -0.5774 0.5340 -0.6177
vn -0.7985 0.5774 0.1704
vn -0.5774 0.8143 -0.0597
vn -0.7071 -0.0690 -0.7037
vn 0.8153 -0.5774 0.0449
vn -0.5448 -0.5774 -0.6082
vn 0.5774 0.8143 0.0592
vn 0.5774 -0.5340 -0.6177
vn 0.7985 0.5774 -0.1703
vn 0.7071 0.3232 0.6289
vn 0.5774 0.5335 0.6181
vn -0.2143 0.3015 -0.9291
vn -0.1457 0.5774 0.8034
vn -0.5774 0.7780 -0.2476
vn -0.5774 -0.3751 0.7252
vn -0.7071 0.1833 -0.6830
vn -0.3015 0.3015 -0.9045
vn -0.3015 0.7456 0.5942
vn -0.7905 -0.5774 -0.2045
vn 0.4143 -0.5774 0.7035
vn 0.5774 -0.7780 -0.2476
vn 0.5774 0.5773 -0.5774
vn 0.5774 0.3751 0.7252
vn 0.6710 0.5773 -0.4652
vn 0.3015 0.3015 -0.9045
vn 0.8930 0.3015 0.3342
vn 0.3015 0.1077 -0.9474
vn 0.7071 -0.3530 0.6127
vn -0.7071 0.1974 -0.6790
vn -0.5774 -0.5773 -0.5774
vn -0.5774 -0.3362 0.7441
vn -0.6711 -0.5773 -0.4651
vn -0.3015 -0.3015 -0.9045
vn -0.8930 -0.3015 0.3342
vn -0.3015 -0.0908 -0.9491
vn -0.3015 0.7154 0.6303
vn -0.0569 0.3015 -0.9518
vn 0.6496 0.3015 0.6980
vn 0.3015 0.0908 -0.9491
vn 0.3015 -0.3015 -0.9045
vn 0.3015 -0.7154 0.6303
vn 0.2143 -0.3015 -0.9291
vn 0.1456 -0.5774 0.8034
vn 0.5773 -0.7638 -0.2885
vn 0.7071 0.0003 -0.7071
vn 0.7071 -0.3274 0.6267
vn -0.5773 0.5774 0.5774
vn -0.1284 -0.8063 0.5774
vn 0.6609 0.4794 -0.5774
vn 0.1284 -0.8063 0.5774
vn 0.5773 0.5774 0.5774
vn -0.6609 0.4794 -0.5774
vn 0.2396 -0.7805 -0.5774
vn 0.7071 0.0003 0.7071
vn -0.6521 -0.2736 0.7071
vn -0.1896 0.7942 -0.5774
vn -0.6610 -0.4794 0.5774
vn 0.7542 -0.3128 0.5774
vn 0.7213 -0.3825 -0.5774
vn -0.6701 0.2257 0.7071
vn -0.5773 -0.5774 -0.5774
vn -0.5773 0.5773 0.5774
vn 0.7071 -0.0002 0.7071
vn 0.5773 -0.5774 0.5774
vn -0.5774 -0.5773 0.5774
vn -0.7071 -0.0000 0.7071
vn 0.5774 -0.5773 0.5774
vn 0.5774 -0.5773 -0.5774
vn -0.5773 0.5774 -0.5774
vn -0.7071 -0.0002 -0.7071
vn 0.7071 -0.0000 -0.7071
vn -0.7071 0.0003 -0.7071
vn 0.5773 0.5774 -0.5774
vn 0.5773 -0.5774 -0.5774
vn -0.5773 -0.5773 -0.5774
vn -0.5773 0.5773 -0.5774
vn 0.5773 0.5773 -0.5774
usemtl wire_027177088
s off
f 13/1/1 7/2/2 6/3/3
f 14/4/4 8/5/5 7/6/6
f 15/7/7 1/8/8 8/9/9
f 17/10/10 6/11/11 5/12/12
f 18/13/13 5/14/14 4/15/15
f 19/16/16 4/17/17 3/18/18
f 20/19/19 3/20/20 2/21/21
f 33/22/22 21/23/23 12/24/24
f 34/25/25 23/26/26 21/27/27
f 36/28/28 12/29/29 11/30/30
f 35/31/31 32/32/32 23/33/33
f 37/34/34 30/35/35 32/36/36
f 38/37/37 26/38/38 30/39/39
f 39/40/40 27/41/41 26/42/42
f 41/43/43 25/44/44 28/45/30
f 42/46/45 29/47/46 25/48/47
f 43/49/48 31/50/49 29/51/50
f 44/52/51 24/53/52 31/54/24
f 45/55/53 22/56/54 24/57/42
f 46/58/55 9/59/56 22/60/57
f 47/61/58 10/62/59 9/63/60
f 17/64/61 19/65/62 15/66/63
f 13/1/64 14/67/9 7/2/65
f 14/4/66 15/68/6 8/5/4
f 15/7/67 16/69/30 1/8/68
f 17/10/69 13/70/33 6/11/70
f 18/13/71 17/71/36 5/14/72
f 19/16/73 18/72/18 4/17/16
f 20/19/74 19/73/15 3/20/75
f 33/22/76 34/74/6 21/23/77
f 34/25/78 35/75/3 23/26/79
f 36/28/80 33/76/81 12/29/82
f 35/31/83 37/77/12 32/32/84
f 37/34/85 38/78/86 30/35/87
f 38/37/88 39/79/89 26/38/90
f 39/40/91 40/80/21 27/41/92
f 41/43/93 42/81/94 25/44/95
f 42/46/96 43/82/97 29/47/98
f 43/49/99 44/83/81 31/50/100
f 44/52/101 45/84/89 24/53/102
f 45/55/103 46/85/104 22/56/105
f 46/58/106 47/86/12 9/59/107
f 47/61/108 48/87/109 10/62/110
f 14/88/111 13/89/112 15/66/113
f 17/64/114 18/90/115 19/65/116
f 19/65/117 20/91/118 16/92/119
f 15/66/120 13/89/121 17/64/122
f 19/65/123 16/92/124 15/66/125
s 1
f 3/93/39 6/94/94 8/95/126
f 10/96/127 12/29/24 9/63/128
f 12/97/24 22/56/57 9/63/128
f 22/60/57 23/98/129 24/53/42
f 26/99/42 28/100/130 25/48/129
f 29/51/50 26/101/42 25/44/129
f 32/102/131 29/47/50 31/54/24
f 23/103/129 31/50/24 24/57/42
f 35/31/94 44/104/81 37/105/132
f 33/22/81 46/106/104 34/107/133
f 39/40/89 41/108/134 40/109/135
f 8/95/126 1/110/136 2/111/135
f 3/93/39 4/112/137 5/113/132
f 8/95/126 2/111/135 3/93/39
f 6/94/94 7/114/133 8/95/126
f 3/93/39 5/113/132 6/94/94
f 10/96/127 11/115/130 12/29/24
f 12/97/24 21/116/27 22/56/57
f 22/60/57 21/117/27 23/98/129
f 26/99/42 27/118/127 28/100/130
f 29/51/50 30/119/115 26/101/42
f 32/102/131 30/120/115 29/47/50
f 23/103/129 32/121/131 31/50/24
f 35/31/94 45/84/89 44/104/81
f 33/22/81 47/86/138 46/106/104
f 39/40/89 42/81/139 41/108/134
s 2
f 35/122/94 46/85/104 45/123/89
f 33/124/81 48/87/135 47/125/138
f 39/126/89 43/82/97 42/127/125
f 35/122/94 34/25/140 46/85/104
f 33/124/81 36/28/134 48/87/135
f 39/126/89 38/37/137 43/82/97
s 4
f 37/34/132 43/128/97 38/129/141
f 37/34/132 44/83/81 43/128/97
