# Blender v2.79 (sub 0) OBJ File: 'theshamancave.blend'
# www.blender.org
mtllib Rectangle004.003.mtl
o Rectangle004.003
v 0.164091 185.485367 -43.318165
v 0.164091 187.535400 -43.318165
v 3.187580 187.535400 -43.318165
v 3.187580 188.533432 -43.318165
v 6.242816 188.533432 -43.318165
v 6.242816 184.487335 -43.318165
v 3.187579 184.487335 -43.318165
v 3.187579 185.485367 -43.318165
v 3.187583 185.485367 -43.245090
v 0.164091 185.485382 -43.245090
v 0.164091 185.106766 -43.245090
v 2.834320 185.106766 -43.245090
v 6.242816 184.487335 -42.872108
v 3.187579 184.487335 -42.872108
v 3.187579 185.485367 -42.872108
v 0.164091 185.485367 -42.872108
v 6.242816 188.533432 -42.872108
v 3.187580 188.533432 -42.872108
v 3.187580 187.535400 -42.872108
v 0.164091 187.535400 -42.872108
v 2.834326 184.108719 -43.245090
v 3.187583 184.487335 -43.245090
v 6.595160 184.108719 -43.245090
v 6.242818 184.487335 -43.245090
v 3.187584 187.535400 -43.245090
v 2.834326 187.914001 -43.245090
v 0.164091 187.914001 -43.245090
v 0.164091 187.535400 -43.245090
v 3.187600 188.533432 -43.245090
v 2.834333 188.912048 -43.245090
v 6.242838 188.533432 -43.245090
v 6.595159 188.912048 -43.245090
v 2.834320 185.106766 -45.907585
v 2.834326 184.108719 -45.907585
v 6.595160 184.108719 -45.907585
v 0.164091 185.106766 -45.907585
v 6.595159 188.912048 -45.907585
v 2.834333 188.912048 -45.907585
v 2.834326 187.914001 -45.907585
v 0.164091 187.914001 -45.907585
v 0.164091 187.535400 -45.907585
v 3.187584 187.535400 -45.907585
v 3.187600 188.533432 -45.907585
v 6.242838 188.533432 -45.907585
v 6.242818 184.487335 -45.907585
v 3.187583 184.487335 -45.907585
v 3.187583 185.485367 -45.907585
v 0.164091 185.485382 -45.907585
vt 1.000000 0.000000
vt 0.000000 1.000000
vt 0.000000 0.000000
vt 1.000000 0.000000
vt 0.000000 1.000000
vt 0.000000 0.000000
vt 1.000000 0.000000
vt 0.000000 1.000000
vt 0.000000 0.000000
vt 1.000000 0.000000
vt 0.000000 1.000000
vt 0.000000 0.000000
vt 1.000000 0.000000
vt 0.000000 1.000000
vt 0.000000 0.000000
vt 1.000000 0.000000
vt 0.000000 1.000000
vt 0.000000 0.000000
vt 1.000000 0.000000
vt 0.000000 1.000000
vt 0.000000 0.000000
vt 1.000000 0.000000
vt 0.000000 1.000000
vt 0.000000 0.000000
vt 1.000000 0.000000
vt 0.000000 1.000000
vt 0.000000 0.000000
vt 1.000000 0.000000
vt 0.000000 1.000000
vt 0.000000 0.000000
vt 1.000000 0.000000
vt 0.000000 1.000000
vt 0.000000 0.000000
vt 1.000000 0.000000
vt 0.000000 1.000000
vt 0.000000 0.000000
vt 1.000000 0.000000
vt 0.000000 1.000000
vt 0.000000 0.000000
vt 1.000000 0.000000
vt 0.000000 1.000000
vt 0.000000 0.000000
vt 1.000000 0.000000
vt 0.000000 1.000000
vt 0.000000 0.000000
vt 1.000000 0.000000
vt 0.000000 1.000000
vt 0.000000 0.000000
vt 1.000000 0.000000
vt 0.000000 1.000000
vt 0.000000 0.000000
vt 1.000000 0.000000
vt 0.000000 1.000000
vt 0.000000 0.000000
vt 1.000000 0.000000
vt 0.000000 1.000000
vt 0.000000 0.000000
vt 1.000000 0.000000
vt 0.000000 1.000000
vt 0.000000 0.000000
vt 1.000000 0.000000
vt 0.000000 1.000000
vt 0.000000 0.000000
vt 0.853553 0.853553
vt 0.853553 0.146447
vt 0.000000 0.500000
vt 1.000000 1.000000
vt 1.000000 1.000000
vt 1.000000 1.000000
vt 1.000000 1.000000
vt 1.000000 1.000000
vt 1.000000 1.000000
vt 1.000000 1.000000
vt 1.000000 1.000000
vt 1.000000 1.000000
vt 1.000000 1.000000
vt 1.000000 1.000000
vt 1.000000 1.000000
vt 1.000000 1.000000
vt 1.000000 1.000000
vt 1.000000 1.000000
vt 1.000000 1.000000
vt 1.000000 1.000000
vt 1.000000 1.000000
vt 1.000000 1.000000
vt 1.000000 1.000000
vt 1.000000 1.000000
vt 0.146447 0.853553
vt 0.500000 1.000000
vt 1.000000 0.500000
vt 0.500000 0.000000
vt 0.146447 0.146447
vt 1.000000 0.500000
vt 0.146447 0.146447
vt 0.146447 0.853553
vt 1.000000 0.000000
vt 1.000000 0.000000
vt 1.000000 1.000000
vt 1.000000 0.000000
vt 0.000000 1.000000
vt 1.000000 1.000000
vt 1.000000 0.000000
vt 1.000000 0.000000
vt 0.000000 1.000000
vt 0.000000 0.000000
vt 0.000000 1.000000
vt 0.000000 0.000000
vt 0.000000 1.000000
vt 0.000000 0.000000
vt 0.500000 1.000000
vt 0.853553 0.853553
vt 0.853553 0.146447
vt 0.500000 0.000000
vt 0.000000 0.500000
vt 1.000000 1.000000
vt 1.000000 1.000000
vt 1.000000 0.000000
vt 1.000000 1.000000
vt 1.000000 0.000000
vt 1.000000 1.000000
vt 1.000000 1.000000
vt 0.000000 0.000000
vt 0.000000 1.000000
vt 0.000000 0.000000
vt 0.000000 1.000000
vt 0.000000 0.000000
vt 0.000000 1.000000
vt 0.000000 1.000000
vt 0.000000 0.000000
vn 0.5340 -0.5774 0.6177
vn -0.8143 -0.5774 -0.0592
vn 0.5774 -0.5774 -0.5773
vn -0.5774 -0.4442 0.6851
vn -0.5774 -0.7985 0.1703
vn -0.5774 -0.5774 -0.5773
vn -0.5335 -0.5774 -0.6181
vn -0.3232 -0.7071 -0.6289
vn -0.5774 -0.5774 0.5773
vn 0.5774 0.5448 0.6082
vn 0.5774 -0.8153 -0.0449
vn 0.5774 0.5774 -0.5773
vn -0.5340 0.5774 0.6177
vn 0.8143 0.5774 -0.0592
vn -0.5774 0.5774 -0.5773
vn -0.5774 0.4442 -0.6851
vn -0.5774 0.7985 -0.1704
vn -0.5774 0.5774 0.5773
vn 0.0690 0.7071 0.7037
vn -0.8143 0.5774 0.0597
vn 0.0002 0.7071 -0.7071
vn -0.3015 -0.8930 -0.3342
vn -0.5773 -0.6710 0.4652
vn -0.3015 -0.3015 0.9045
vn -0.3751 -0.5774 -0.7252
vn 0.7780 -0.5774 0.2476
vn -0.5773 -0.5774 0.5774
vn 0.3530 -0.7071 -0.6127
vn -0.1077 -0.3015 0.9474
vn 0.0002 -0.7071 0.7071
vn 0.5774 -0.4145 -0.7035
vn 0.5774 0.7905 0.2045
vn 0.5774 -0.5774 0.5773
vn 0.3751 0.5774 -0.7252
vn -0.7780 0.5774 0.2476
vn 0.5774 0.5774 0.5773
vn -0.5774 0.1456 -0.8034
vn -0.3015 0.2143 0.9291
vn -0.5773 0.5773 0.5774
vn -0.7456 0.3015 -0.5942
vn -0.1833 0.7071 0.6829
vn -0.3015 0.3015 0.9045
vn 0.3274 -0.7071 -0.6267
vn 0.7638 -0.5774 0.2885
vn -0.0003 -0.7071 0.7071
vn 0.5773 -0.1456 -0.8034
vn 0.3015 -0.2143 0.9291
vn 0.5773 -0.5773 0.5774
vn 0.7154 -0.3015 -0.6303
vn -0.0908 -0.3015 0.9491
vn 0.3015 -0.3015 0.9045
vn -0.3015 -0.6496 -0.6980
vn -0.3015 0.0569 0.9518
vn -0.7154 0.3015 -0.6303
vn 0.0908 0.3015 0.9491
vn 0.3015 0.8930 -0.3342
vn 0.5774 0.6710 0.4652
vn 0.3015 0.3015 0.9045
vn 0.3362 0.5773 -0.7441
vn -0.1974 0.7071 0.6790
vn 0.5773 0.5773 0.5774
vn 0.6961 0.4267 0.5773
vn -0.6609 0.4794 -0.5774
vn -0.3130 -0.7541 -0.5774
vn 0.8143 -0.5774 0.0592
vn -0.5340 -0.5774 -0.6177
vn -0.5774 -0.7985 0.1704
vn -0.8143 -0.5774 -0.0597
vn 0.0690 -0.7071 -0.7037
vn 0.5774 0.8153 0.0449
vn 0.5774 -0.5448 -0.6082
vn -0.8143 0.5774 0.0592
vn 0.5340 0.5774 -0.6177
vn -0.5774 0.7985 -0.1703
vn -0.3232 0.7071 0.6289
vn -0.5335 0.5774 0.6181
vn -0.3015 -0.2143 -0.9291
vn -0.5773 -0.5773 -0.5774
vn -0.5774 -0.1456 0.8034
vn -0.7780 -0.5774 -0.2476
vn 0.3751 -0.5774 0.7252
vn -0.1833 -0.7071 -0.6829
vn -0.3015 -0.3015 -0.9045
vn -0.7456 -0.3015 0.5942
vn 0.5774 -0.7905 -0.2044
vn 0.5774 0.5773 -0.5774
vn 0.5774 0.4143 0.7035
vn 0.7780 0.5774 -0.2476
vn -0.5773 0.5774 -0.5774
vn -0.3751 0.5774 0.7252
vn -0.5773 0.6710 -0.4652
vn -0.3015 0.3015 -0.9045
vn -0.3015 0.8930 0.3342
vn -0.1077 0.3015 -0.9474
vn 0.3530 0.7071 0.6127
vn -0.1974 -0.7071 -0.6790
vn 0.5773 -0.5774 -0.5774
vn 0.3362 -0.5774 0.7441
vn 0.5773 -0.6710 -0.4652
vn 0.3015 -0.3015 -0.9045
vn 0.3015 -0.8930 0.3342
vn 0.0908 -0.3015 -0.9491
vn -0.7154 -0.3015 0.6303
vn -0.3015 -0.0569 -0.9518
vn -0.3015 0.6496 0.6980
vn -0.0908 0.3015 -0.9491
vn 0.3015 0.3015 -0.9045
vn 0.7154 0.3015 0.6303
vn 0.3015 0.2143 -0.9291
vn 0.5774 0.1456 0.8034
vn 0.7638 0.5773 -0.2885
vn -0.0003 0.7071 -0.7071
vn 0.3274 0.7071 0.6268
vn 0.8063 -0.1284 0.5774
vn -0.4793 0.6610 -0.5774
vn 0.8064 0.1283 0.5774
vn -0.5774 0.5773 0.5774
vn -0.4794 -0.6609 -0.5774
vn -0.2255 0.6702 0.7071
vn 0.3824 -0.7214 -0.5774
vn -0.7942 -0.1894 -0.5774
vn 0.4794 -0.6610 0.5774
vn 0.3130 0.7541 0.5774
vn 0.2738 0.6519 0.7071
vn 0.0000 -0.7071 0.7071
vn 0.7805 -0.2397 -0.5774
vn 0.5774 -0.5773 -0.5774
vn -0.5773 -0.5773 0.5774
vn 0.0002 0.7071 0.7071
vn 0.5773 0.5774 0.5773
vn 0.5773 -0.5774 0.5773
vn 0.5774 0.5773 0.5774
vn 0.5773 0.5774 -0.5774
vn -0.5774 -0.5773 -0.5774
vn -0.0003 -0.7071 -0.7071
vn 0.0000 0.7071 -0.7071
vn 0.0002 -0.7071 -0.7071
vn -0.5773 -0.5774 0.5773
vn -0.5773 0.5774 0.5774
vn -0.5773 -0.5774 -0.5774
vn -0.5774 0.5773 -0.5774
usemtl wire_027177088.007
s off
f 13/1/1 7/2/2 6/3/3
f 14/4/4 8/5/5 7/6/6
f 15/7/7 1/8/8 8/9/9
f 17/10/10 6/11/11 5/12/12
f 18/13/13 5/14/14 4/15/15
f 19/16/16 4/17/17 3/18/18
f 20/19/19 3/20/20 2/21/21
f 33/22/22 21/23/23 12/24/24
f 34/25/25 23/26/26 21/27/27
f 36/28/28 12/29/29 11/30/30
f 35/31/31 32/32/32 23/33/33
f 37/34/34 30/35/35 32/36/36
f 38/37/37 26/38/38 30/39/39
f 39/40/40 27/41/41 26/42/42
f 41/43/43 25/44/44 28/45/45
f 42/46/46 29/47/47 25/48/48
f 43/49/49 31/50/50 29/51/51
f 44/52/52 24/53/53 31/54/24
f 45/55/54 22/56/55 24/57/42
f 46/58/56 9/59/57 22/60/58
f 47/61/59 10/62/60 9/63/61
f 17/64/62 19/65/63 15/66/64
f 13/1/65 14/67/9 7/2/66
f 14/4/67 15/68/6 8/5/4
f 15/7/68 16/69/30 1/8/69
f 17/10/70 13/70/33 6/11/71
f 18/13/72 17/71/36 5/14/73
f 19/16/74 18/72/18 4/17/16
f 20/19/75 19/73/15 3/20/76
f 33/22/77 34/74/78 21/23/79
f 34/25/80 35/75/3 23/26/81
f 36/28/82 33/76/83 12/29/84
f 35/31/85 37/77/86 32/32/87
f 37/34/88 38/78/89 30/35/90
f 38/37/91 39/79/92 26/38/93
f 39/40/94 40/80/21 27/41/95
f 41/43/96 42/81/97 25/44/98
f 42/46/99 43/82/100 29/47/101
f 43/49/102 44/83/83 31/50/103
f 44/52/104 45/84/92 24/53/105
f 45/55/106 46/85/107 22/56/108
f 46/58/109 47/86/12 9/59/110
f 47/61/111 48/87/112 10/62/113
f 14/88/27 13/89/114 15/66/115
f 17/64/116 18/90/117 19/65/118
f 19/65/86 20/91/119 15/66/120
f 15/66/121 13/89/122 17/64/123
f 20/91/124 16/92/125 15/66/126
s 1
f 3/93/39 6/94/127 8/95/128
f 10/96/129 12/29/24 9/63/130
f 12/97/24 22/56/58 9/63/130
f 22/60/58 23/98/131 24/53/42
f 26/99/42 28/100/125 25/48/131
f 29/51/51 26/101/42 25/44/131
f 32/102/132 29/47/51 31/54/24
f 23/103/131 31/50/24 24/57/42
f 35/31/97 44/104/83 37/105/133
f 33/22/83 46/106/107 34/107/134
f 39/40/92 41/108/135 40/109/136
f 8/95/128 1/110/137 2/111/136
f 3/93/39 4/112/89 5/113/133
f 8/95/128 2/111/136 3/93/39
f 6/94/127 7/114/134 8/95/128
f 3/93/39 5/113/133 6/94/127
f 10/96/129 11/115/125 12/29/24
f 12/97/24 21/116/138 22/56/58
f 22/60/58 21/117/138 23/98/131
f 26/99/42 27/118/129 28/100/125
f 29/51/51 30/119/139 26/101/42
f 32/102/132 30/120/139 29/47/51
f 23/103/131 32/121/132 31/50/24
f 35/31/97 45/84/92 44/104/83
f 33/22/83 47/86/86 46/106/107
f 39/40/92 42/81/127 41/108/135
s 2
f 35/122/97 46/85/107 45/123/92
f 33/124/83 48/87/136 47/125/86
f 39/126/92 43/82/100 42/127/127
f 35/122/97 34/25/140 46/85/107
f 33/124/83 36/28/137 48/87/136
f 39/126/92 38/37/141 43/82/100
s 4
f 37/34/133 43/128/100 38/129/141
f 37/34/133 44/83/83 43/128/100
