# Blender v2.79 (sub 0) OBJ File: 'theshamancave.blend'
# www.blender.org
mtllib ReferenceMan002.mtl
o ReferenceMan002
v -8.044470 180.430389 -42.978447
v -8.199761 179.850830 -42.978447
v -7.620205 179.695541 -42.978447
v -7.464914 180.275101 -42.978447
v -8.044470 180.430389 -44.698444
v -7.464914 180.275101 -44.698444
v -7.620205 179.695541 -44.698444
v -8.199761 179.850830 -44.698444
vt 1.000000 0.000000
vt 0.000000 1.000000
vt 0.000000 0.000000
vt 0.000000 0.000000
vt 1.000000 1.000000
vt 0.000000 1.000000
vt 1.000000 1.000000
vt 1.000000 0.000000
vt 1.000000 0.000000
vt 0.000000 1.000000
vt 0.000000 0.000000
vt 1.000000 0.000000
vt 0.000000 1.000000
vt 0.000000 0.000000
vt 1.000000 1.000000
vt 1.000000 1.000000
vt 1.000000 0.000000
vt 0.000000 1.000000
vt 0.000000 0.000000
vt 1.000000 1.000000
vn -0.4082 0.7071 0.5774
vn 0.4082 -0.7071 0.5774
vn 0.7071 0.4082 0.5774
vn -0.4082 0.7071 -0.5774
vn 0.4082 -0.7071 -0.5773
vn -0.7071 -0.4082 -0.5773
vn -0.7071 -0.4082 0.5773
vn 0.7071 0.4082 -0.5773
vn 0.7071 0.4083 0.5774
vn -0.4083 0.7071 -0.5773
vn -0.4083 0.7071 0.5773
vn 0.4082 -0.7071 -0.5774
vn 0.7071 0.4083 -0.5774
vn 0.4083 -0.7071 0.5774
vn 0.7071 0.4083 -0.5773
vn 0.7071 0.4083 0.5773
vn -0.4082 0.7071 0.5773
vn -0.7071 -0.4082 -0.5774
vn -0.7071 -0.4082 0.5774
vn 0.4083 -0.7071 -0.5774
vn -0.4082 0.7071 -0.5773
usemtl wire_198225087
s 1
f 1/1/1 3/2/2 4/3/3
f 5/4/4 7/5/5 8/6/6
f 1/1/1 2/7/7 3/2/2
f 5/4/4 6/8/8 7/5/5
s 2
f 4/9/9 5/10/10 1/11/11
f 2/12/7 7/13/12 3/14/2
f 4/9/9 6/15/13 5/10/10
f 2/12/7 8/16/6 7/13/12
s 4
f 3/17/14 6/18/15 4/3/16
f 1/1/17 8/6/18 2/19/19
f 3/17/14 7/5/20 6/18/15
f 1/1/17 5/20/21 8/6/18
