# Blender v2.79 (sub 0) OBJ File: 'theshamancave.blend'
# www.blender.org
mtllib ReferenceMan.010.mtl
o ReferenceMan.010
v 0.380000 -0.144948 -1.800000
v -0.380000 -0.144948 -1.800000
v -0.380000 0.144948 -1.800000
v 0.380000 0.144948 -1.800000
v 0.380000 0.144948 0.000000
v 0.380000 -0.144948 0.000000
v -0.380000 -0.144948 0.000000
v -0.380000 0.144948 0.000000
v -0.300000 0.144948 -1.720000
v -0.300000 -0.144948 -1.720000
v 0.300000 -0.144948 -1.720000
v 0.300000 0.144948 -1.720000
v 0.300000 0.144948 0.000000
v 0.300000 -0.144948 0.000000
v -0.300000 -0.144948 0.000000
v -0.300000 0.144948 0.000000
vt 0.000000 1.000000
vt 1.000000 0.000000
vt 1.000000 1.000000
vt 0.000000 1.000000
vt 1.000000 0.000000
vt 0.000000 0.000000
vt 0.000000 0.000000
vt 1.000000 0.000000
vt 1.000000 0.000000
vt 0.000000 0.000000
vt 1.000000 0.000000
vt 1.000000 0.000000
vt 0.000000 0.000000
vt 1.000000 1.000000
vt 0.000000 0.000000
vt 0.000000 0.000000
vt 0.000000 1.000000
vt 1.000000 1.000000
vt 0.000000 1.000000
vt 1.000000 1.000000
vn -0.5774 -0.5773 -0.5774
vn 0.5774 0.5773 -0.5774
vn 0.5773 -0.5774 -0.5774
vn 0.3015 -0.9045 0.3015
vn -0.3015 0.9045 0.3015
vn 0.3015 0.9045 0.3015
vn 0.5773 0.5774 0.5774
vn -0.5773 -0.5774 0.5774
vn 0.5774 -0.5773 0.5774
vn -0.5774 0.5773 0.5774
vn -0.5773 0.5774 -0.5774
vn -0.3015 -0.9045 0.3015
vn 0.5774 0.5774 -0.5773
vn 0.5774 -0.5774 0.5773
vn 0.5774 -0.5773 -0.5774
vn -0.5774 -0.5774 -0.5773
vn -0.5774 0.5774 0.5773
vn -0.5774 0.5773 -0.5774
vn -0.5774 -0.5773 0.5774
vn 0.5774 0.5773 0.5774
vn 0.5774 -0.5774 -0.5773
vn -0.5773 -0.5774 -0.5774
vn -0.5774 0.5774 -0.5773
vn 0.5773 0.5774 -0.5774
vn 0.5774 0.5774 0.5773
vn -0.5773 0.5774 0.5774
vn 0.5773 -0.5774 0.5774
vn -0.5774 -0.5774 0.5773
usemtl wire_198225087.006
s 1
f 2/1/1 4/2/2 1/3/3
f 10/4/4 12/5/5 9/6/6
f 5/7/7 14/8/8 6/9/9
f 7/10/8 16/11/7 8/12/10
f 2/1/1 3/13/11 4/2/2
f 10/4/4 11/14/12 12/5/5
f 5/7/7 13/15/10 14/8/8
f 7/10/8 15/16/9 16/11/7
s 2
f 4/17/13 6/9/14 1/3/15
f 2/1/16 8/12/17 3/18/18
f 12/19/5 14/8/19 13/15/17
f 10/4/4 16/11/20 15/16/14
f 4/17/13 5/7/20 6/9/14
f 2/1/16 7/10/19 8/12/17
f 12/19/5 11/14/12 14/8/19
f 10/4/4 9/20/6 16/11/20
s 4
f 1/3/21 10/4/4 2/1/22
f 3/13/23 12/5/5 4/2/24
f 5/7/25 12/19/5 13/15/26
f 6/9/27 11/14/12 1/3/21
f 7/10/28 10/4/4 15/16/27
f 8/12/26 9/20/6 3/18/23
f 1/3/21 11/14/12 10/4/4
f 3/13/23 9/6/6 12/5/5
f 5/7/25 4/17/24 12/19/5
f 6/9/27 14/8/28 11/14/12
f 7/10/28 2/1/22 10/4/4
f 8/12/26 16/11/25 9/20/6
