# Blender v2.79 (sub 0) OBJ File: 'theshamancave.blend'
# www.blender.org
mtllib ReferenceMan.013.mtl
o ReferenceMan.013
v 0.126667 -0.144948 -2.157837
v -0.126667 -0.144948 -2.157837
v -0.126667 0.144948 -2.157837
v 0.126667 0.144948 -2.157837
v 0.380000 -0.144948 -1.800000
v 0.380000 0.144948 -1.800000
v 0.380000 0.144948 0.000000
v 0.380000 -0.144948 0.000000
v -0.380000 0.144948 -1.800000
v -0.380000 -0.144948 -1.800000
v -0.380000 -0.144948 0.000000
v -0.380000 0.144948 0.000000
v -0.100000 -0.144948 -2.077837
v 0.100000 -0.144948 -2.077837
v 0.100000 0.144948 -2.077837
v -0.100000 0.144948 -2.077837
v 0.300000 0.144948 0.000000
v 0.300000 0.144948 -1.793607
v 0.300000 -0.144948 -1.793607
v 0.300000 -0.144948 0.000000
v -0.300000 -0.144948 0.000000
v -0.300000 -0.144948 -1.793607
v -0.300000 0.144948 -1.793607
v -0.300000 0.144948 0.000000
v -0.291696 -0.144948 -2.017282
v -0.291696 0.144948 -2.017281
v 0.291696 0.144948 -2.017282
v 0.291696 -0.144948 -2.017281
v 0.230410 -0.144948 -1.966132
v 0.230410 0.144948 -1.966132
v -0.230410 0.144948 -1.966132
v -0.230410 -0.144948 -1.966132
vt 0.333333 1.000000
vt 0.666667 0.000000
vt 0.666667 1.000000
vt 0.666667 1.000000
vt 0.333333 0.000000
vt 0.333333 1.000000
vt 0.000000 0.000000
vt 1.000000 0.000000
vt 1.000000 0.000000
vt 0.000000 0.000000
vt 1.000000 0.000000
vt 1.000000 0.000000
vt 0.174617 1.000000
vt 0.333333 0.000000
vt 0.898818 0.000000
vt 0.898818 1.000000
vt 0.666667 0.000000
vt 0.174617 0.000000
vt 0.000000 1.000000
vt 0.174617 0.000000
vt 0.000000 0.000000
vt 0.174617 1.000000
vt 1.000000 0.000000
vt 0.898818 1.000000
vt 1.000000 1.000000
vt 0.898818 0.000000
vt 0.000000 0.000000
vt 0.000000 0.000000
vt 0.000000 0.000000
vt 0.000000 1.000000
vt 1.000000 1.000000
vt 1.000000 0.000000
vt 0.000000 1.000000
vt 1.000000 1.000000
vt 0.000000 1.000000
vt 1.000000 1.000000
vn -0.2666 -0.6366 -0.7237
vn 0.2666 0.6366 -0.7237
vn 0.2670 -0.6350 -0.7249
vn -0.2089 -0.7980 0.5652
vn 0.2089 0.7980 0.5652
vn 0.2080 -0.8002 0.5626
vn 0.5773 0.5774 0.5774
vn -0.5773 -0.5774 0.5774
vn 0.5774 -0.5773 0.5774
vn -0.5774 0.5773 0.5774
vn -0.6118 -0.6560 -0.4420
vn -0.2670 0.6350 -0.7249
vn 0.6118 0.6560 -0.4420
vn -0.5197 -0.7684 0.3734
vn -0.2080 0.8002 0.5626
vn 0.5197 0.7684 0.3734
vn -0.7317 -0.6664 -0.1430
vn -0.6113 0.6566 -0.4418
vn 0.6464 0.7526 0.1255
vn 0.5204 -0.7677 0.3739
vn 0.7317 0.6664 -0.1430
vn 0.6113 -0.6566 -0.4418
vn -0.6464 -0.7526 0.1255
vn -0.5204 0.7677 0.3739
vn -0.7317 0.6664 -0.1430
vn 0.6464 -0.7526 0.1255
vn 0.7317 -0.6664 -0.1430
vn -0.6464 0.7526 0.1255
vn 0.7318 0.6664 -0.1430
vn 0.5774 -0.5774 0.5773
vn 0.7318 -0.6664 -0.1430
vn -0.7318 -0.6664 -0.1430
vn -0.5774 0.5774 0.5773
vn -0.7318 0.6664 -0.1430
vn -0.6464 0.7526 0.1254
vn -0.5774 -0.5773 0.5774
vn 0.6464 -0.7526 0.1254
vn 0.5774 0.5773 0.5774
vn -0.6464 -0.7526 0.1254
vn 0.6464 0.7526 0.1254
vn 0.2663 -0.6370 -0.7234
vn 0.2107 -0.7941 0.5701
vn -0.2663 -0.6370 -0.7234
vn -0.2663 0.6370 -0.7234
vn -0.2107 0.7941 0.5701
vn 0.2663 0.6370 -0.7234
vn 0.5774 0.5774 0.5773
vn -0.5773 0.5774 0.5774
vn 0.5773 -0.5774 0.5774
vn -0.5774 -0.5774 0.5773
vn 0.6108 -0.6574 -0.4413
vn -0.2107 -0.7941 0.5701
vn -0.6108 -0.6574 -0.4414
vn -0.6108 0.6574 -0.4413
vn 0.2107 0.7941 0.5701
vn 0.6108 0.6574 -0.4414
vn 0.5234 -0.7646 0.3760
vn 0.5234 0.7646 0.3760
vn -0.5234 -0.7646 0.3760
vn -0.5234 0.7646 0.3760
usemtl wire_198225087.009
s 1
f 2/1/1 4/2/2 1/3/3
f 14/4/4 16/5/5 13/6/6
f 7/7/7 20/8/8 8/9/9
f 11/10/8 24/11/7 12/12/10
f 25/13/11 3/14/12 2/1/1
f 27/15/13 1/3/3 4/2/2
f 29/16/14 15/17/15 14/4/4
f 31/18/16 13/6/6 16/5/5
f 10/19/17 26/20/18 25/13/11
f 23/21/19 32/22/20 31/18/16
f 6/23/21 28/24/22 27/15/13
f 19/25/23 30/26/24 29/16/14
f 2/1/1 3/14/12 4/2/2
f 14/4/4 15/17/15 16/5/5
f 7/7/7 17/27/10 20/8/8
f 11/10/8 21/28/9 24/11/7
f 25/13/11 26/20/18 3/14/12
f 27/15/13 28/24/22 1/3/3
f 29/16/14 30/26/24 15/17/15
f 31/18/16 32/22/20 13/6/6
f 10/19/17 9/29/25 26/20/18
f 23/21/19 22/30/26 32/22/20
f 6/23/21 5/31/27 28/24/22
f 19/25/23 18/32/28 30/26/24
s 2
f 6/33/29 8/9/30 5/31/31
f 10/19/32 12/12/33 9/34/34
f 18/35/35 20/8/36 17/27/33
f 22/30/37 24/11/38 21/28/30
f 6/33/29 7/7/38 8/9/30
f 10/19/32 11/10/36 12/12/33
f 18/35/35 19/25/39 20/8/36
f 22/30/37 23/36/40 24/11/38
s 4
f 1/3/41 13/6/42 2/1/43
f 3/14/44 15/17/45 4/2/46
f 7/7/47 18/35/28 17/27/48
f 8/9/49 19/25/23 5/31/31
f 11/10/50 22/30/26 21/28/49
f 12/12/48 23/36/19 9/34/34
f 28/24/51 14/4/52 1/3/41
f 13/6/42 25/13/53 2/1/43
f 26/20/54 16/5/55 3/14/44
f 15/17/45 27/15/56 4/2/46
f 32/22/57 10/19/32 25/13/53
f 9/29/34 31/18/58 26/20/54
f 5/31/31 29/16/59 28/24/51
f 30/26/60 6/23/29 27/15/56
f 1/3/41 14/4/52 13/6/42
f 3/14/44 16/5/55 15/17/45
f 7/7/47 6/33/29 18/35/28
f 8/9/49 20/8/50 19/25/23
f 11/10/50 10/19/32 22/30/26
f 12/12/48 24/11/47 23/36/19
f 28/24/51 29/16/59 14/4/52
f 13/6/42 32/22/57 25/13/53
f 26/20/54 31/18/58 16/5/55
f 15/17/45 30/26/60 27/15/56
f 32/22/57 22/30/26 10/19/32
f 9/29/34 23/21/19 31/18/58
f 5/31/31 19/25/23 29/16/59
f 30/26/60 18/32/28 6/23/29
