# Blender v2.79 (sub 0) OBJ File: 'theshamancave.blend'
# www.blender.org
mtllib ReferenceMan003.003.mtl
o ReferenceMan003.003
v -3.388772 180.455704 -42.978447
v -3.088772 179.936096 -42.978447
v -2.569157 180.236084 -42.978447
v -2.869157 180.755692 -42.978447
v -3.388772 180.455704 -44.698444
v -2.869157 180.755692 -44.698444
v -2.569157 180.236084 -44.698444
v -3.088772 179.936096 -44.698444
vt 1.000000 1.000000
vt 0.000000 0.000000
vt 1.000000 0.000000
vt 1.000000 0.000000
vt 0.000000 1.000000
vt 0.000000 0.000000
vt 0.000000 1.000000
vt 1.000000 1.000000
vt 1.000000 0.000000
vt 0.000000 1.000000
vt 0.000000 0.000000
vt 1.000000 0.000000
vt 0.000000 1.000000
vt 0.000000 0.000000
vt 1.000000 1.000000
vt 1.000000 1.000000
vt 1.000000 0.000000
vt 0.000000 1.000000
vt 0.000000 0.000000
vt 1.000000 1.000000
vn -0.2113 -0.7887 0.5774
vn 0.2113 0.7887 0.5774
vn -0.7887 0.2113 0.5774
vn 0.2113 0.7887 -0.5774
vn -0.2113 -0.7887 -0.5774
vn -0.7887 0.2113 -0.5774
vn 0.7887 -0.2113 0.5774
vn 0.7887 -0.2113 -0.5774
vn -0.7887 0.2113 -0.5773
vn -0.7887 0.2113 0.5773
vn 0.7887 -0.2113 -0.5773
vn 0.7887 -0.2113 0.5773
vn 0.7887 -0.2114 0.5773
vn 0.2113 0.7887 -0.5773
vn 0.2113 0.7886 0.5774
vn -0.7887 0.2114 0.5773
vn -0.2113 -0.7886 -0.5774
vn -0.2113 -0.7886 0.5774
vn 0.7887 -0.2114 -0.5773
vn -0.7887 0.2114 -0.5773
usemtl wire_198225087.007
s 1
f 2/1/1 4/2/2 1/3/3
f 6/4/4 8/5/5 5/6/6
f 2/1/1 3/7/7 4/2/2
f 6/4/4 7/8/8 8/5/5
s 2
f 4/9/2 5/10/9 1/11/10
f 2/12/1 7/13/11 3/14/12
f 4/9/2 6/15/4 5/10/9
f 2/12/1 8/16/5 7/13/11
s 4
f 3/17/13 6/18/14 4/2/15
f 1/3/16 8/5/17 2/19/18
f 3/17/13 7/8/19 6/18/14
f 1/3/16 5/20/20 8/5/17
