# Blender v2.79 (sub 0) OBJ File: 'theshamancave.blend'
# www.blender.org
mtllib ReferenceMan005.002.mtl
o ReferenceMan005.002
v -0.139894 188.421356 -42.978447
v 0.379722 188.721359 -42.978447
v 0.079722 189.240967 -42.978447
v -0.439894 188.940979 -42.978447
v -0.139894 188.421356 -44.698444
v -0.439894 188.940979 -44.698444
v 0.079722 189.240967 -44.698444
v 0.379722 188.721359 -44.698444
vt 1.000000 0.000000
vt 0.000000 1.000000
vt 0.000000 0.000000
vt 0.000000 0.000000
vt 1.000000 1.000000
vt 0.000000 1.000000
vt 1.000000 1.000000
vt 1.000000 0.000000
vt 1.000000 0.000000
vt 0.000000 1.000000
vt 0.000000 0.000000
vt 1.000000 0.000000
vt 0.000000 1.000000
vt 0.000000 0.000000
vt 1.000000 1.000000
vt 1.000000 1.000000
vt 1.000000 0.000000
vt 0.000000 1.000000
vt 0.000000 0.000000
vt 1.000000 1.000000
vn -0.2113 -0.7887 0.5774
vn 0.2113 0.7887 0.5774
vn -0.7887 0.2113 0.5774
vn -0.2113 -0.7887 -0.5774
vn 0.2113 0.7887 -0.5774
vn 0.7887 -0.2114 -0.5774
vn 0.7887 -0.2114 0.5774
vn -0.7887 0.2113 -0.5774
vn -0.7887 0.2114 0.5773
vn -0.2113 -0.7887 -0.5773
vn -0.2113 -0.7887 0.5773
vn 0.7887 -0.2114 0.5773
vn 0.2113 0.7886 -0.5774
vn 0.2113 0.7886 0.5774
vn 0.7887 -0.2114 -0.5773
vn -0.7887 0.2113 -0.5773
vn -0.7887 0.2113 0.5773
vn 0.7887 -0.2113 -0.5773
vn 0.7887 -0.2113 0.5773
usemtl wire_198225087.006
s 1
f 1/1/1 3/2/2 4/3/3
f 5/4/4 7/5/5 8/6/6
f 1/1/1 2/7/7 3/2/2
f 5/4/4 6/8/8 7/5/5
s 2
f 4/9/9 5/10/10 1/11/11
f 2/12/12 7/13/13 3/14/14
f 4/9/9 6/15/8 5/10/10
f 2/12/12 8/16/15 7/13/13
s 4
f 3/17/2 6/18/16 4/3/17
f 1/1/1 8/6/18 2/19/19
f 3/17/2 7/5/5 6/18/16
f 1/1/1 5/20/4 8/6/18
